<?xml version="1.0" standalone="no"?>
<!DOCTYPE svg PUBLIC "-//W3C//DTD SVG 1.1//EN" "http://www.w3.org/Graphics/SVG/1.1/DTD/svg11.dtd" >
<svg xmlns="http://www.w3.org/2000/svg">
<metadata></metadata>
<defs>
<font id="chivoblack_italic" horiz-adv-x="1259" >
<font-face units-per-em="2048" ascent="1638" descent="-410" />
<missing-glyph horiz-adv-x="393" />
<glyph horiz-adv-x="2048" />
<glyph horiz-adv-x="2048" />
<glyph unicode="&#xd;" horiz-adv-x="2048" />
<glyph unicode=" "  horiz-adv-x="393" />
<glyph unicode="&#x09;" horiz-adv-x="393" />
<glyph unicode="&#xa0;" horiz-adv-x="393" />
<glyph unicode="!" horiz-adv-x="645" d="M51 0l53 375h392l-54 -375h-391zM180 473v932h508l-248 -932h-260z" />
<glyph unicode="&#x22;" horiz-adv-x="886" d="M145 1104l43 301h318l-43 -301l-137 -293h-125zM561 1104l43 301h318l-43 -301l-140 -293h-123z" />
<glyph unicode="#" horiz-adv-x="1353" d="M18 340l31 219h250l92 248h-217l31 221h260l143 397h244l-145 -397h225l143 397h240l-148 -397h187l-31 -221h-225l-88 -248h213l-31 -219h-268l-121 -340h-238l121 340h-229l-119 -340h-240l119 340h-199zM537 557h231l92 248h-233z" />
<glyph unicode="$" horiz-adv-x="1245" d="M33 397q0 79 12 107h358l-4 -17q-4 -28 -4 -30q0 -111 156 -111q186 0 186 90q0 28 -26 49.5t-69 35t-97.5 30.5t-111.5 34t-111.5 47.5t-97.5 69t-69 101t-26 141.5q0 171 129.5 292t343.5 138l-6 176h262l-53 -170q174 -13 281.5 -98.5t107.5 -234.5q0 -31 -6 -86h-354 v12q0 3 1 9t1 7q0 45 -34.5 75t-103.5 30q-83 0 -124.5 -25t-41.5 -65q0 -29 26.5 -51.5t70 -36.5t99 -30.5t114 -33t114 -45.5t99 -65t70 -94.5t26.5 -131.5q0 -473 -535 -473l7 -178h-263l56 180q-170 18 -276.5 108.5t-106.5 243.5z" />
<glyph unicode="%" horiz-adv-x="1464" d="M104 905v19q0 12 2 18l29 209q12 107 92.5 179.5t196.5 72.5h45q96 0 157.5 -61t61.5 -154v-19q0 -12 -2 -18l-29 -209q-18 -110 -94 -181t-194 -71h-45q-96 0 -158 61t-62 154zM123 0l1057 1405h190l-1053 -1405h-194zM299 905q0 -29 19.5 -48t48.5 -19q33 0 57.5 22.5 t28.5 57.5l18 126q3 25 8 61.5t7.5 57.5t2.5 27q0 30 -17 48.5t-46 18.5q-32 0 -58 -22.5t-30 -56.5q-39 -262 -39 -273zM807 213v18q0 13 2 19l29 209q12 107 92 179.5t196 72.5h45q96 0 158 -61t62 -154v-19q0 -12 -2 -18l-29 -209q-18 -110 -94.5 -181t-194.5 -71h-45 q-96 0 -157.5 61t-61.5 154zM1001 213q0 -29 19.5 -48.5t48.5 -19.5q33 0 57.5 22.5t28.5 57.5l19 127q3 25 8 61.5t7.5 57.5t2.5 27q0 30 -17.5 48.5t-46.5 18.5q-32 0 -58 -23t-30 -57q-39 -262 -39 -272z" />
<glyph unicode="&#x26;" horiz-adv-x="1452" d="M25 340q0 158 77.5 257.5t225.5 135.5q-84 29 -127 94t-43 154q0 108 45 194t122.5 140t178 82t215.5 28q53 0 102 -6l-43 -307q-30 10 -57 10q-82 0 -126 -38.5t-44 -110.5q0 -44 28 -77.5t87 -33.5h247l144 244h280l-32 -244h163l-41 -291h-163l-80 -571h-654 q-106 0 -192.5 17t-159 54.5t-113 105.5t-40.5 163zM438 408q0 -62 44 -93.5t112 -31.5h223l41 288h-233q-47 0 -82.5 -12t-54.5 -29t-31 -40.5t-15.5 -42.5t-3.5 -39z" />
<glyph unicode="'" horiz-adv-x="471" d="M145 1104l43 301h318l-43 -301l-137 -293h-125z" />
<glyph unicode="(" horiz-adv-x="636" d="M39 356q0 283 122 559.5t339 489.5h221q-172 -248 -267.5 -527t-95.5 -554q0 -176 30.5 -346.5t88.5 -301.5h-221q-217 292 -217 680z" />
<glyph unicode=")" horiz-adv-x="638" d="M-98 -324q169 239 265.5 521.5t96.5 556.5q0 172 -31.5 344.5t-87.5 306.5h222q217 -292 217 -686q0 -82 -13 -178q-35 -240 -150.5 -463t-297.5 -402h-221z" />
<glyph unicode="*" horiz-adv-x="1036" d="M109 989l110 225l270 -122l17 313h246l-74 -313l319 122l41 -225l-317 -71l172 -232l-225 -143l-125 268l-197 -268l-184 143l237 232z" />
<glyph unicode="+" d="M78 393l35 262h393l55 394h262l-55 -394h393l-35 -262h-393l-55 -393h-262l55 393h-393z" />
<glyph unicode="," horiz-adv-x="585" d="M14 0l54 375h391l-47 -330l-156 -383h-193l123 338h-172z" />
<glyph unicode="-" horiz-adv-x="718" d="M72 401l45 324h520l-47 -324h-518z" />
<glyph unicode="." horiz-adv-x="587" d="M16 0l52 375h391l-51 -375h-392z" />
<glyph unicode="/" horiz-adv-x="1107" d="M-90 -350l1003 1755h269l-1002 -1755h-270z" />
<glyph unicode="0" d="M51 420q0 34 6 72l60 421q32 229 198.5 370.5t384.5 141.5h93q193 0 318.5 -126t125.5 -316q0 -16 -4 -70l-59 -421q-15 -107 -62.5 -200t-121.5 -162.5t-177.5 -109.5t-222.5 -40h-92q-191 0 -319 126.5t-128 313.5zM455 414q0 -60 36 -99t93 -39q77 0 122 45.5 t56 118.5l74 527l2 24q0 60 -37 99.5t-94 39.5q-70 0 -118 -39.5t-59 -123.5l-73 -527q-2 -6 -2 -26z" />
<glyph unicode="1" d="M68 0l43 313h311l92 656h-311l33 235q131 7 302.5 72t303.5 149h137l-156 -1112h299l-43 -313h-1011z" />
<glyph unicode="2" d="M-8 0l10 74q14 117 62 199.5t149 154.5q8 6 52 38t67 48q319 226 396 300t77 167q0 54 -35 89.5t-90 35.5h-27q-61 0 -105.5 -40.5t-55.5 -102.5l-9 -58h-360q17 237 180 378.5t414 141.5h63q205 0 324 -105.5t119 -279.5q0 -67 -16.5 -128.5t-41.5 -109.5t-68 -96.5 t-82 -83t-99.5 -76.5t-104 -68.5t-111 -67.5t-106.5 -66h539l-48 -344h-1093z" />
<glyph unicode="3" d="M14 330q0 17 4 63l7 35h358q-2 -6 -2 -27q0 -116 145 -116h56q87 0 137.5 50.5t50.5 137.5q0 58 -34.5 88.5t-90.5 30.5h-213l35 252h180q65 0 114.5 42.5t49.5 121.5q0 48 -35 80t-90 32h-37q-60 0 -107.5 -37.5t-54.5 -91.5h-342q0 124 78 224t209 155t287 55h61 q199 0 320 -96t121 -239q0 -117 -69 -215.5t-171 -139.5q190 -73 190 -282q0 -148 -81.5 -257t-214 -162.5t-297.5 -53.5h-86q-230 0 -354 97.5t-124 252.5z" />
<glyph unicode="4" d="M6 309l41 305q102 150 244 411t188 400h363q-40 -152 -216 -414t-315 -401h307l31 209q63 75 155 229.5t126 241.5h170l-96 -680h200l-41 -301h-200l-43 -309h-385l43 309h-572z" />
<glyph unicode="5" d="M35 391v35q0 13 4 33h360q-2 -6 -2 -23q0 -60 41.5 -100.5t102.5 -40.5h34q74 0 133.5 56.5t59.5 152.5q0 60 -41 100.5t-102 40.5h-29q-39 0 -69.5 -13t-56.5 -34t-30 -23l-315 46l168 784h901l-47 -348h-596l-47 -209q32 22 76 45q96 47 198 47q185 0 290.5 -102.5 t105.5 -286.5q0 -164 -81.5 -295.5t-220 -203.5t-305.5 -72h-61q-221 0 -346 115t-125 296z" />
<glyph unicode="6" d="M57 420q0 61 64 493q19 144 107.5 262.5t220 184t276.5 65.5h57q189 0 312 -102.5t123 -288.5q0 -33 -7 -80h-364l2 43q-1 54 -36 87.5t-89 33.5h-12q-63 0 -117 -45t-64 -108l-24 -177q59 53 134 80t138 27q180 0 292 -91.5t112 -260.5q0 -103 -32 -193.5t-89 -157 t-133 -115t-164.5 -73t-183.5 -24.5h-58q-203 0 -334 124t-131 316zM453 397q0 -56 38 -93.5t97 -37.5h12q64 0 117 46t57 108l14 104q0 61 -38 97t-97 36h-12q-63 0 -113 -45t-61 -108l-12 -84q-2 -4 -2 -12v-11z" />
<glyph unicode="7" d="M178 0q20 140 77.5 283.5t146.5 280t178.5 249.5t205.5 240h-598l50 352h1042l-27 -186q-116 -134 -205 -252.5t-174.5 -258t-142 -288t-80.5 -299.5l-18 -121h-455z" />
<glyph unicode="8" d="M43 330q0 74 18.5 133t56 104.5t79.5 78t102 65.5l2 8q-62 51 -92.5 101.5t-30.5 129.5q0 146 80 256t207 164.5t278 54.5q199 0 326 -93.5t127 -258.5q0 -70 -16 -126t-48.5 -98.5t-63.5 -70t-77 -59.5l-2 -8q83 -55 124.5 -115t41.5 -150q0 -65 -18 -127.5t-62.5 -125 t-112.5 -109t-176.5 -75.5t-244.5 -29q-229 0 -363.5 91t-134.5 259zM453 373q0 -54 35 -88.5t92 -34.5q61 0 106.5 41t56.5 102l11 68v18q0 55 -34.5 90t-90.5 35q-61 0 -107 -41t-57 -102l-10 -68q-2 -4 -2 -20zM535 946q0 -54 35.5 -87.5t91.5 -33.5q60 0 108 42t55 102 l6 47v18q0 55 -34 90t-90 35q-60 0 -108.5 -41.5t-55.5 -101.5l-6 -47q-2 -6 -2 -23z" />
<glyph unicode="9" d="M70 371q0 37 6 80h364q-2 -6 -2 -17v-24q0 -50 36 -86.5t89 -36.5h12q76 0 123 43t58 110l24 176q-59 -53 -133.5 -79.5t-138.5 -26.5q-180 0 -293 91.5t-113 260.5q0 122 50.5 228.5t134.5 179t193.5 114t226.5 41.5h57q202 0 333.5 -123.5t131.5 -314.5q0 -63 -64 -495 q-33 -225 -198 -368.5t-406 -143.5h-57q-92 0 -170 25t-137.5 72.5t-93 123t-33.5 170.5zM498 879q0 -56 38 -93.5t97 -37.5h12q63 0 113 45t61 108l15 105q0 57 -39.5 95t-96.5 38h-12q-62 0 -112.5 -45t-61.5 -109l-10 -70l-2 -15q-2 -15 -2 -21z" />
<glyph unicode=":" horiz-adv-x="630" d="M37 0l51 375h391l-51 -375h-391zM131 672l51 375h391l-51 -375h-391z" />
<glyph unicode=";" horiz-adv-x="628" d="M35 0l53 375h391l-47 -330l-156 -383h-192l123 338h-172zM129 672l53 375h391l-53 -375h-391z" />
<glyph unicode="&#x3c;" d="M61 379l39 285l1100 403l-41 -285l-749 -262l677 -260l-40 -283z" />
<glyph unicode="=" d="M45 166l37 262h1048l-36 -262h-1049zM109 616l36 263h1049l-37 -263h-1048z" />
<glyph unicode="&#x3e;" d="M39 -23l41 283l747 260l-675 262l41 285l985 -403l-39 -285z" />
<glyph unicode="?" horiz-adv-x="1193" d="M100 915q1 9 1 25t1 28.5t4 24.5q29 196 192.5 314t381.5 118h78q181 0 307.5 -107.5t126.5 -275.5q0 -75 -22.5 -140t-59 -111t-80.5 -84.5t-88.5 -67t-82 -53t-63 -48.5t-28.5 -46l-6 -46h-350l18 121q7 46 43.5 92t83 85t92.5 79.5t77.5 91.5t31.5 105q0 52 -32 87.5 t-85 35.5q-34 0 -60 -9t-42.5 -28.5t-27.5 -38.5t-18 -49.5t-10 -50t-6 -52.5h-377zM340 0l51 375h391l-51 -375h-391z" />
<glyph unicode="@" horiz-adv-x="1857" d="M47 342q0 94 14 195q27 190 95 341.5t163.5 253t219 169t257 97t281.5 29.5q166 0 299 -36t233.5 -109t155 -193t54.5 -280q0 -124 -19.5 -230.5t-51.5 -183t-77 -138t-94 -100.5t-103 -65t-103 -36.5t-97 -10.5q-198 0 -242 158q-71 -71 -151 -113.5t-187 -42.5 q-62 0 -115 13t-98.5 41.5t-71.5 80.5t-26 123q0 89 34 154.5t92 106.5t148.5 65.5t190.5 33.5t231 9l4 28q4 32 4 48q0 46 -30.5 70t-79.5 24q-44 0 -87.5 -25.5t-47.5 -64.5l-2 -9h-365q0 134 142 228t362 94h63q207 0 312.5 -73.5t105.5 -196.5v-21q0 -14 -2 -20 l-57 -406q0 -36 16 -53.5t41 -17.5q38 0 75.5 38t67.5 103t49 163t19 208q0 176 -77 292t-211 168t-322 52q-187 0 -342.5 -59.5t-272.5 -175t-182 -298.5t-65 -418q0 -272 142 -406t439 -134q75 0 183.5 19.5t164.5 45.5l-18 -135q-65 -23 -170 -39t-176 -16 q-344 0 -529.5 161.5t-185.5 493.5zM788 352q0 -73 103 -73q53 0 98.5 38.5t52.5 96.5l11 84q-135 0 -200 -39.5t-65 -106.5z" />
<glyph unicode="A" horiz-adv-x="1452" d="M-90 0l665 1405h535l270 -1405h-446l-49 250h-447l-116 -250h-412zM580 547h249l-59 426h-10z" />
<glyph unicode="B" horiz-adv-x="1343" d="M33 0l198 1405h770q140 0 231 -86t91 -213q0 -85 -25 -152t-68.5 -110t-89 -69t-100.5 -42l-2 -8q224 -56 224 -279q0 -113 -53 -214t-157 -166.5t-237 -65.5h-782zM475 326h260q42 0 77.5 30t39.5 72l4 37v14q0 38 -25 63t-63 25h-260zM551 866h235q42 0 77.5 30.5 t39.5 72.5l4 35v14q0 38 -25 63t-63 25h-235z" />
<glyph unicode="C" horiz-adv-x="1400" d="M55 496q0 31 39 315q24 182 125 322t256.5 216t339.5 76h57q234 0 376.5 -125.5t142.5 -357.5q0 -54 -9 -113h-403l10 72q2 6 2 17v18q0 78 -49.5 124t-128.5 46h-10q-100 0 -160.5 -57t-73.5 -148l-55 -395q-2 -4 -2 -14v-15q0 -75 50 -125.5t128 -50.5h29q103 0 159 52 t74 153l11 67h385q-42 -279 -214.5 -436t-447.5 -157h-57q-166 0 -295 59.5t-204 177.5t-75 279z" />
<glyph unicode="D" horiz-adv-x="1427" d="M33 0l198 1405h633q153 0 275.5 -69.5t191 -190t68.5 -268.5q0 -43 -6 -86l-27 -177q-19 -128 -75 -239.5t-143.5 -195t-212 -131.5t-269.5 -48h-633zM514 326h158q100 0 160 56.5t73 147.5l49 351l2 26q0 76 -50.5 127t-127.5 51h-157z" />
<glyph unicode="E" horiz-adv-x="1228" d="M33 0l198 1405h1055l-86 -324h-592l-30 -204h569l-43 -314h-569l-33 -227h585v-336h-1054z" />
<glyph unicode="F" horiz-adv-x="1153" d="M33 0l198 1405h1016l-88 -334h-555l-33 -229h516l-45 -316h-516l-73 -526h-420z" />
<glyph unicode="G" horiz-adv-x="1431" d="M57 500q0 44 6 94l31 217q19 129 77.5 240t150.5 194.5t224 131.5t288 48h57q215 0 358.5 -125t143.5 -319q0 -22 -4 -68l-3 -14h-397q2 6 2 21v20q0 84 -49 125t-129 41h-10q-96 0 -159 -58t-75 -147l-55 -395q-2 -6 -2 -14v-15q0 -75 50 -125.5t128 -50.5h37 q86 0 139.5 54.5t67.5 152.5h-238l39 278h635l-67 -491q-6 -39 -11 -79t-8.5 -79.5t-5.5 -54.5q-4 -62 -4 -82h-230l-34 150q-86 -82 -184.5 -126t-241.5 -44h-21q-150 0 -266.5 68.5t-178 186.5t-61.5 265z" />
<glyph unicode="H" horiz-adv-x="1427" d="M33 0l198 1405h431l-74 -518h332l73 518h432l-198 -1405h-430l77 547h-331l-78 -547h-432z" />
<glyph unicode="I" horiz-adv-x="913" d="M-10 0l43 303h166l112 801h-166l43 301h766l-43 -301h-166l-112 -801h166l-43 -303h-766z" />
<glyph unicode="J" horiz-adv-x="1112" d="M-18 301v23q0 39 24 184h393l-10 -66q-10 -58 -10 -77q0 -35 21.5 -56.5t52.5 -21.5q36 0 64 26t34 68l143 1024h420l-145 -1036q-28 -187 -171.5 -288t-353.5 -101h-63q-190 0 -294.5 83.5t-104.5 237.5z" />
<glyph unicode="K" horiz-adv-x="1400" d="M33 0l198 1405h418l-78 -555l480 555h475l-508 -563l321 -842h-481l-172 508l-190 -197l-45 -311h-418z" />
<glyph unicode="L" horiz-adv-x="1105" d="M33 0l198 1405h435l-150 -1061h502v-344h-985z" />
<glyph unicode="M" horiz-adv-x="2056" d="M33 0l198 1405h705l96 -750h8l306 750h708l-199 -1405h-430l127 901h-8l-373 -901h-493l-117 901h-10l-127 -901h-391z" />
<glyph unicode="N" horiz-adv-x="1425" d="M33 0l198 1405h361l287 -522l34 -70l23 -45l90 637h397l-198 -1405h-369l-278 504q-4 6 -35 65l-27 54l-88 -623h-395z" />
<glyph unicode="O" horiz-adv-x="1472" d="M57 508q0 22 1.5 40.5t4 37t12 84t19.5 137.5q25 171 117.5 309.5t245.5 221.5t338 83h114q153 0 275.5 -69.5t191 -190t68.5 -268.5q0 -26 -1.5 -45t-4 -37.5t-12 -80.5t-19.5 -136q-18 -128 -76.5 -239.5t-147 -195t-212 -131.5t-264.5 -48h-115q-153 0 -275.5 69.5 t-191 190t-68.5 268.5zM512 477q0 -75 50 -125.5t128 -50.5h10q100 0 160.5 57t73.5 148l55 395q2 6 2 29q0 74 -50.5 125t-127.5 51h-10q-100 0 -160.5 -57t-73.5 -148l-55 -395q-2 -4 -2 -14v-15z" />
<glyph unicode="P" horiz-adv-x="1320" d="M33 0l198 1405h748q162 0 267.5 -107t105.5 -264q0 -13 -11 -104q-26 -184 -159 -307t-330 -123h-317l-72 -500h-430zM578 813h188q61 0 98.5 37.5t42.5 85.5l4 43q0 42 -27 73t-79 31h-189z" />
<glyph unicode="Q" horiz-adv-x="1470" d="M57 506q0 40 35 301q21 169 117 309t250.5 222.5t335.5 82.5h114q231 0 382 -150t151 -376q0 -35 -1 -53.5t-3.5 -35t-11.5 -77.5t-19 -135q-30 -210 -157 -364t-341 -218q26 -92 148 -92q96 0 237 41l27 8l-31 -215q-55 -27 -108 -43q-127 -43 -275 -43q-90 0 -163 20.5 t-120.5 53.5t-81 76.5t-49 86.5t-18.5 87q-188 37 -303 177t-115 337zM512 477q0 -75 50 -125.5t128 -50.5h10q100 0 160.5 57t73.5 148l55 395q2 6 2 29q0 74 -50.5 125t-127.5 51h-10q-100 0 -160.5 -57t-73.5 -148l-55 -395q-2 -6 -2 -14v-15z" />
<glyph unicode="R" horiz-adv-x="1396" d="M33 0l196 1405h789q144 0 244 -84t100 -219q0 -148 -87.5 -252t-213.5 -125l-2 -10q180 -54 180 -279q0 -27 -7 -87.5t-7 -98.5q0 -128 78 -148l-13 -84q-98 -38 -250 -38q-128 0 -193 46.5t-65 153.5q0 26 8.5 90t8.5 97q0 178 -152 178h-119l-75 -545h-420zM573 858 h218q49 0 79.5 29t36.5 74l2 38q0 36 -26 60t-62 24h-217z" />
<glyph unicode="S" horiz-adv-x="1333" d="M25 362q0 39 12 117h397q-8 -19 -8 -45q0 -55 40.5 -90t133.5 -35q207 0 207 99q0 28 -23 48t-62.5 33t-90.5 24.5t-107 25t-112 30.5t-107 45.5t-90.5 66t-62.5 95.5t-23 131q0 126 49.5 225.5t139 163t210.5 96.5t267 33q149 0 262.5 -37.5t183.5 -121.5t70 -207 q0 -47 -8 -88h-394l2 39q0 44 -38.5 74t-112.5 30q-90 0 -137.5 -26.5t-47.5 -69.5q0 -36 38 -60.5t98.5 -40t134 -30.5t146.5 -40t133.5 -61t98.5 -100t38 -151q0 -84 -19 -159.5t-68.5 -149.5t-126 -127t-200.5 -86t-283 -33q-111 0 -206.5 23t-171 68t-119 119.5 t-43.5 171.5z" />
<glyph unicode="T" horiz-adv-x="1198" d="M96 1067l47 338h1139l-47 -338h-356l-152 -1067h-426l152 1067h-357z" />
<glyph unicode="U" horiz-adv-x="1406" d="M80 373q0 35 6 73l133 959h432l-133 -952q-2 -6 -2 -23q0 -59 42 -95t106 -36q83 0 129 41.5t57 112.5l133 952h430l-133 -959q-33 -218 -190 -342t-428 -124h-89q-228 0 -360.5 106t-132.5 287z" />
<glyph unicode="V" horiz-adv-x="1341" d="M104 1405h447l123 -873h8l367 873h413l-624 -1405h-512z" />
<glyph unicode="W" horiz-adv-x="2093" d="M109 1405h444l88 -780h8l312 780h440l86 -780h8l309 780h404l-580 -1405h-487l-74 674h-12l-267 -674h-495z" />
<glyph unicode="X" horiz-adv-x="1376" d="M-115 0l543 743l-301 662h498l143 -358h8l246 358h461l-492 -664l336 -741h-500l-176 436h-8l-297 -436h-461z" />
<glyph unicode="Y" horiz-adv-x="1318" d="M90 1405h483l146 -461h10l281 461h440l-588 -868l-76 -537h-428l76 537z" />
<glyph unicode="Z" horiz-adv-x="1243" d="M-55 0l18 125l682 952h-502l47 328h1104l-18 -125l-674 -950h557l-47 -330h-1167z" />
<glyph unicode="[" horiz-adv-x="651" d="M-14 -330l243 1735h486l-25 -170h-180l-195 -1395h181l-25 -170h-485z" />
<glyph unicode="\" horiz-adv-x="1327" d="M139 1405h269l755 -1755h-270z" />
<glyph unicode="]" horiz-adv-x="649" d="M-82 -330l25 170h180l194 1395h-180l25 170h485l-244 -1735h-485z" />
<glyph unicode="^" horiz-adv-x="1228" d="M-4 0l547 1047h284l258 -1047h-282l-160 717l-362 -717h-285z" />
<glyph unicode="_" horiz-adv-x="1355" d="M45 -260l16 127h1024l-18 -127h-1022z" />
<glyph unicode="`" horiz-adv-x="681" d="M104 1468l7 7h309l143 -297h-241z" />
<glyph unicode="a" horiz-adv-x="1286" d="M35 395q0 76 12.5 152.5t37 152.5t65 141.5t93 116.5t125.5 80t158 29t160.5 -37.5t118.5 -107.5h10l70 125h305q-33 -194 -55 -365q-54 -368 -54 -401q0 -56 54 -56q31 0 75 27l-30 -225q-89 -47 -211 -47q-52 0 -92 5.5t-80.5 21.5t-67.5 49t-39 83 q-56 -70 -138 -114.5t-167 -44.5q-92 0 -161 32t-109.5 90t-60 131t-19.5 162zM436 348q0 -54 30.5 -87.5t78.5 -33.5q63 0 101 40.5t46 103.5l21 147q22 167 22 174q0 58 -29.5 88.5t-78.5 30.5q-56 0 -98 -41t-50 -102q-43 -303 -43 -320z" />
<glyph unicode="b" horiz-adv-x="1226" d="M18 0l205 1475h406l-76 -537q129 129 289 129q148 0 238.5 -102.5t90.5 -296.5q0 -103 -19 -200.5t-61 -186.5t-102.5 -155.5t-150.5 -106t-199 -39.5q-223 0 -320 174l-159 -154h-142zM471 348q0 -54 30.5 -87.5t78.5 -33.5q63 0 101 40.5t46 103.5l21 147 q22 167 22 174q0 58 -29.5 88.5t-78.5 30.5q-56 0 -98 -41t-50 -102q-43 -303 -43 -320z" />
<glyph unicode="c" horiz-adv-x="1163" d="M33 406q0 136 41.5 255t119.5 210t200 143.5t274 52.5q79 0 145.5 -13t112.5 -35t82 -52.5t57.5 -63.5t35 -70.5t18.5 -70t5 -66.5q0 -36 -6 -73h-344q0 22 2 32q4 32 4 39q0 54 -33.5 89.5t-87.5 35.5q-69 0 -111 -40t-50 -103q-10 -56 -23 -152q-22 -126 -22 -174 q0 -55 36 -89t101 -34q95 0 141 72q23 33 29 72l8 53h324q-32 -211 -179 -327.5t-372 -116.5q-126 0 -225.5 35t-160 95t-91.5 135t-31 161z" />
<glyph unicode="d" horiz-adv-x="1308" d="M37 395q0 163 41.5 294.5t110.5 212t153.5 123t175.5 42.5q193 0 252 -129l76 537h405l-82 -570q-82 -547 -82 -606q0 -36 10 -55t42 -19q31 0 75 27l-30 -225q-89 -47 -211 -47q-50 0 -88 5t-77.5 19t-67 43.5t-40.5 73.5q-61 -67 -127.5 -104t-169.5 -37 q-171 0 -268.5 105t-97.5 310zM434 348q0 -54 30.5 -87.5t78.5 -33.5q63 0 101 40.5t46 103.5l21 147q22 167 22 174q0 58 -29.5 88.5t-78.5 30.5q-56 0 -98 -41t-50 -102q-43 -303 -43 -320z" />
<glyph unicode="e" horiz-adv-x="1228" d="M33 410q0 202 83.5 352t229 227.5t334.5 77.5h51q214 0 329.5 -106.5t115.5 -284.5v-21l-5 -34q-2 -30 -18 -152h-682l-8 -51q-8 -36 -8 -70q0 -58 38.5 -89.5t100.5 -31.5q72 0 116.5 44.5t55.5 121.5h375q-26 -179 -180.5 -296t-389.5 -117h-30q-226 0 -367 115 t-141 315zM496 647h282q0 9 2 15q0 3 1 13.5t1 18.5q0 55 -33.5 90t-86.5 35q-60 0 -107.5 -41.5t-54.5 -101.5z" />
<glyph unicode="f" horiz-adv-x="856" d="M-193 -338l33 229q57 -24 123 -24q63 0 94 36.5t43 104.5l105 748h-131l41 291h131l18 135q45 309 420 309q65 0 144 -11.5t122 -33.5l-30 -225q-70 20 -125 20q-24 0 -43 -5t-32 -11t-23.5 -20.5t-16 -23.5t-11 -30.5t-7.5 -31.5t-6 -36.5t-5 -35.5h246l-41 -291h-246 l-112 -809q-24 -163 -137.5 -246.5t-284.5 -83.5q-67 0 -145.5 11.5t-123.5 33.5z" />
<glyph unicode="g" horiz-adv-x="1228" d="M-6 -39h407q0 -32 29 -61t86 -29q27 0 48 10t33 23.5t21.5 35t13 37t7.5 37.5l18 154q-123 -129 -290 -129q-86 0 -151 32.5t-103 89.5t-57 127.5t-19 153.5q0 88 18 174.5t59.5 168.5t101 144t149.5 100t198 38q104 0 187 -43t131 -131l161 154h144l-135 -965 q-31 -229 -181 -346t-368 -117q-101 0 -187.5 17.5t-161 55t-117 106.5t-42.5 163zM438 416q0 -54 30.5 -87.5t78.5 -33.5q63 0 101 40t46 103q15 107 17 119q18 142 18 143q0 58 -29.5 88.5t-78.5 30.5q-56 0 -96.5 -39.5t-51.5 -103.5l-18 -123q-17 -134 -17 -137z" />
<glyph unicode="h" horiz-adv-x="1222" d="M18 0l205 1475h406l-78 -551q21 32 74 71q105 72 235 72q74 0 130.5 -21t86.5 -50t48 -68.5t23 -68t5 -56.5v-25q0 -12 -2.5 -33t-10.5 -76t-19 -128t-32 -220t-45 -321h-405q16 117 30 217.5t23 163.5t16.5 114.5t11.5 79t7 47.5t4 29.5t1.5 16t0.5 14.5 q0 41 -24.5 68.5t-69.5 27.5q-52 0 -84.5 -34.5t-40.5 -88.5l-92 -655h-404z" />
<glyph unicode="i" horiz-adv-x="606" d="M18 0l146 1047h403l-147 -1047h-402zM182 1182l41 293h404l-41 -293h-404z" />
<glyph unicode="j" horiz-adv-x="610" d="M-270 -338l32 229q22 -10 60 -17t63 -7q52 0 87 29.5t46 111.5l146 1039h407l-155 -1100q-24 -162 -135.5 -246t-284.5 -84q-58 0 -138.5 13t-127.5 32zM182 1182l41 293h408l-41 -293h-408z" />
<glyph unicode="k" horiz-adv-x="1230" d="M18 0l205 1475h406l-115 -818l322 390h462l-434 -474l293 -573h-477l-143 297l-82 -64l-33 -233h-404z" />
<glyph unicode="l" horiz-adv-x="608" d="M18 0l205 1475h406l-207 -1475h-404z" />
<glyph unicode="m" horiz-adv-x="1779" d="M16 0l148 1047h303l20 -152q17 24 44 50t68.5 55.5t100.5 48t123 18.5q208 0 273 -160q57 76 132 118t189 42q142 0 217.5 -73t75.5 -191q0 -40 -35 -283l-20 -143q-11 -92 -53 -377h-398q4 34 47 332q47 343 47 352q0 41 -24 66.5t-60 25.5q-45 0 -76.5 -30.5 t-37.5 -81.5l-92 -664h-398q4 34 47 332q48 351 48 352q0 41 -24 66.5t-60 25.5q-45 0 -77 -31t-38 -81l-92 -664h-398z" />
<glyph unicode="n" horiz-adv-x="1222" d="M16 0l148 1047h305l18 -152q132 172 371 172q143 0 219 -73.5t76 -190.5q0 -34 -35 -281l-20 -143q-3 -27 -54 -379h-405q5 40 47 326q47 335 47 350q0 45 -24.5 73.5t-69.5 28.5q-52 0 -84.5 -34.5t-40.5 -88.5l-92 -655h-406z" />
<glyph unicode="o" horiz-adv-x="1255" d="M33 420q0 94 23 184.5t73.5 175t123 148t178 101.5t231.5 38h34q242 0 374 -119.5t132 -322.5q0 -185 -79.5 -332t-223 -230t-326.5 -83h-30q-245 0 -377.5 119.5t-132.5 320.5zM453 350q0 -54 34 -88.5t88 -34.5q65 0 108 40.5t54 103.5l23 149q22 167 22 174 q0 50 -34 87.5t-89 37.5q-61 0 -107 -41.5t-54 -101.5q-11 -68 -23 -158q-22 -126 -22 -168z" />
<glyph unicode="p" horiz-adv-x="1226" d="M-33 -371l197 1418h323l21 -121q133 141 285 141q171 0 274.5 -106t103.5 -308q0 -90 -16 -181t-53.5 -180.5t-91.5 -158t-137 -111t-183 -42.5q-91 0 -158.5 36.5t-93.5 92.5l-67 -480h-404zM475 356q0 -54 30.5 -87t78.5 -33q63 0 101 40t46 103l21 147q22 167 22 174 q0 58 -29.5 88.5t-78.5 30.5q-56 0 -98 -41t-50 -102q-43 -303 -43 -320z" />
<glyph unicode="q" horiz-adv-x="1226" d="M33 377q0 98 17.5 192t58 185t100 159t151.5 110t205 42q217 0 305 -158l174 140h144l-199 -1416h-405l67 475q-129 -129 -289 -129q-148 0 -238.5 103t-90.5 297zM432 354q0 -54 30.5 -87.5t78.5 -33.5q63 0 101 40.5t46 103.5l21 147q22 167 22 174q0 58 -29.5 88.5 t-78.5 30.5q-56 0 -98 -41t-50 -102q-43 -303 -43 -320z" />
<glyph unicode="r" horiz-adv-x="1032" d="M16 0l148 1047h303l22 -152q8 15 32 40.5t62 56.5t94 53t114 22q121 0 185 -60.5t64 -166.5q0 -25 -18 -131q-3 -15 -8.5 -45t-7.5 -41h-332q0 18 2 26q4 28 4 39q0 86 -72 86q-41 0 -68.5 -29t-33.5 -73l-94 -672h-396z" />
<glyph unicode="s" horiz-adv-x="1144" d="M2 260q0 49 8 82h332q-2 -2 -2 -8v-15q0 -26 15.5 -45t41 -29t51.5 -14t54 -4q184 0 184 70q0 27 -33 43.5t-85.5 24.5t-116 16t-127 25t-116 44.5t-85.5 80.5t-33 128q0 105 50.5 186.5t133 128t176 70t191.5 23.5h16q113 0 209.5 -26t163 -85.5t66.5 -142.5 q0 -21 -4.5 -41t-7.5 -30l-3 -9h-336v10q0 82 -131 82q-159 0 -159 -65q0 -27 33 -41.5t86.5 -21t117.5 -13t128 -22.5t117.5 -43t86.5 -81t33 -130q0 -92 -31.5 -167.5t-96.5 -135t-176.5 -92.5t-260.5 -33h-21q-469 0 -469 280z" />
<glyph unicode="t" horiz-adv-x="858" d="M70 756l41 291h114l47 333h428l-69 -333h246l-41 -291h-246q-60 -408 -60 -426q0 -61 26 -82t77 -21q24 0 64 7.5t65 17.5l-33 -229q-50 -19 -136.5 -32.5t-143.5 -13.5q-163 0 -250.5 53.5t-87.5 178.5q0 34 31 253q24 166 42 294h-114z" />
<glyph unicode="u" horiz-adv-x="1284" d="M49 244q0 45 53 424q20 161 56 379h405l-47 -326q-12 -75 -23.5 -158.5t-17.5 -133.5t-6 -58q0 -45 24.5 -74t69.5 -29q52 0 84.5 34.5t40.5 88.5l92 656h406q-46 -321 -53 -375q-54 -380 -54 -385q0 -29 17 -44.5t39 -15.5q26 0 47 9q3 1 26 10l-30 -219 q-27 -17 -58 -25q-61 -22 -155 -22q-131 0 -196 41.5t-83 123.5q-19 -24 -43 -46.5t-66.5 -52.5t-103 -48t-129.5 -18q-143 0 -219 73.5t-76 190.5z" />
<glyph unicode="v" horiz-adv-x="1142" d="M55 1047h432l70 -598h14l238 598h395l-487 -1047h-469z" />
<glyph unicode="w" horiz-adv-x="1751" d="M68 1047h421l43 -529h15l198 529h410l49 -529h17l190 529h393l-444 -1047h-459l-39 436h-16l-160 -436h-467z" />
<glyph unicode="x" horiz-adv-x="1193" d="M-98 0l424 553l-244 494h465l94 -242h8l160 242h436l-389 -504l266 -543h-465l-114 293h-8l-199 -293h-434z" />
<glyph unicode="y" horiz-adv-x="1130" d="M-70 -352l35 264q21 -11 65 -20t85 -9q134 0 180 148l-242 1016h432l84 -543h17l215 543h399l-489 -973q-104 -207 -255.5 -332t-330.5 -125q-142 0 -195 31z" />
<glyph unicode="z" horiz-adv-x="1017" d="M-37 0l17 129l477 664h-363l35 254h887l-17 -123l-481 -670h404l-35 -254h-924z" />
<glyph unicode="{" horiz-adv-x="700" d="M23 459l22 162q61 0 114 29.5t60 86.5l62 439q11 75 62.5 128.5t118.5 77t140 23.5h166l-20 -139q-148 0 -166 -84l-80 -422q-40 -211 -238 -211l-2 -19q178 0 178 -172q0 -48 -19.5 -243.5t-19.5 -225.5q0 -75 144 -75l-21 -140h-166q-106 0 -182 50.5t-76 146.5 q0 36 33 251t33 243q0 48 -40.5 71t-102.5 23z" />
<glyph unicode="|" horiz-adv-x="595" d="M166 -408v1883h246v-1883h-246z" />
<glyph unicode="}" horiz-adv-x="698" d="M-84 -326l21 140q147 0 165 86l78 419q40 211 238 211l2 19q-178 0 -178 170q0 31 20.5 242t20.5 227q0 78 -146 78l21 139h166q106 0 182 -50.5t76 -146.5q0 -7 -2.5 -26t-7 -52.5t-7.5 -60.5l-16 -106l-17 -107q-3 -26 -7.5 -60t-6.5 -51.5t-2 -23.5q0 -50 41.5 -75 t101.5 -25l-24 -162q-62 0 -113.5 -28t-58.5 -85l-62 -442q-11 -75 -62.5 -129t-118.5 -77.5t-140 -23.5h-164z" />
<glyph unicode="~" horiz-adv-x="1329" d="M59 389l37 258q43 40 105 80q135 80 252 80q59 0 122.5 -21t110.5 -46.5t111.5 -46.5t124.5 -21q123 0 252 80q61 36 104 79l-37 -258q-43 -43 -104 -79q-129 -80 -252 -80q-59 0 -122.5 21t-110.5 46.5t-111.5 46.5t-124.5 21q-117 0 -252 -80q-62 -40 -105 -80z" />
<glyph unicode="&#xa1;" horiz-adv-x="620" d="M-76 -362l246 931h260v-931h-506zM117 672l53 375h391l-53 -375h-391z" />
<glyph unicode="&#xa2;" horiz-adv-x="1187" d="M72 582q0 255 136.5 436t385.5 217v186h264l-49 -184q84 -11 149 -40.5t102.5 -66.5t61.5 -84t32.5 -88.5t8.5 -85.5q0 -36 -6 -73h-344q0 22 2 32q4 32 4 39q0 54 -33.5 89.5t-87.5 35.5q-69 0 -111 -40t-50 -103q-10 -56 -23 -152q-22 -126 -22 -174q0 -55 36 -89 t101 -34q95 0 141 72q23 33 29 72l8 53h323q-29 -192 -153.5 -305.5t-317.5 -134.5v-180h-268l55 186q-183 31 -278.5 147.5t-95.5 268.5z" />
<glyph unicode="&#xa3;" horiz-adv-x="1368" d="M49 0l41 301h131l35 244h-190l38 301h193l25 164q25 183 184 303.5t399 120.5q202 0 336.5 -108t134.5 -267q0 -10 -1 -21.5t-2.5 -25t-2.5 -21.5l-6 -37h-408l5 25q4 28 4 47q0 44 -29.5 74t-73.5 30q-59 0 -93 -32.5t-42 -85.5l-25 -166h197l-41 -301h-199l-75 -244 h577l-43 -301h-1069z" />
<glyph unicode="&#xa4;" horiz-adv-x="1243" d="M45 289l135 119q-59 77 -59 210q0 100 38.5 203t102.5 160l-102 119l147 129l101 -117q50 41 133 65.5t166 24.5q84 0 157 -24t109 -62l135 119l121 -139l-131 -115q51 -66 51 -201q0 -107 -36 -209t-101 -168l98 -114l-139 -123l-103 119q-53 -47 -134.5 -73t-170.5 -26 q-86 0 -159.5 25.5t-116.5 69.5l-133 -117zM369 649q0 -104 62.5 -170.5t164.5 -66.5q127 0 216 99.5t89 229.5q0 101 -61 168.5t-164 67.5q-124 0 -215.5 -98.5t-91.5 -229.5z" />
<glyph unicode="&#xa5;" horiz-adv-x="1458" d="M119 459l26 190h314l-41 96h-260l28 191h158l-186 469h483l145 -461h11l280 461h441l-318 -469h172l-29 -191h-272l-65 -96h325l-26 -190h-385l-66 -459h-428l66 459h-373z" />
<glyph unicode="&#xa6;" horiz-adv-x="552" d="M39 0l80 561h307l-80 -561h-307zM158 844l80 561h307l-80 -561h-307z" />
<glyph unicode="&#xa7;" horiz-adv-x="1163" d="M12 -84q0 5 4 33h336q0 -86 144 -86q127 0 127 84q0 33 -31.5 62t-82.5 53.5t-112 50.5t-122 59.5t-112 73t-82.5 99t-31.5 130.5q0 125 53.5 206t155.5 142q-48 31 -74 90t-26 125q0 84 34.5 152t89.5 110.5t126.5 71.5t141.5 41t140 12q61 0 119.5 -8t118.5 -27.5 t104.5 -49.5t72.5 -78t28 -109v-23q0 -4 -2 -17t-3 -21h-335q0 45 -38 68.5t-96 23.5q-139 0 -139 -84q0 -33 32 -62.5t82.5 -54t112 -50.5t123 -59.5t112 -73t82.5 -98.5t32 -129q0 -141 -105 -262q-49 -56 -104 -88q48 -31 73 -90t25 -125q0 -84 -34.5 -152t-89 -110.5 t-126 -71.5t-141 -41t-139.5 -12q-79 0 -152 13.5t-141 43.5t-109 86t-41 132v20zM375 586q0 -37 23 -70t66.5 -61t79 -46.5t89.5 -42t69 -30.5q23 10 37 24q39 39 39 91q0 31 -18 60.5t-45 51.5t-65.5 44.5t-71 37t-70 31.5t-55.5 26q-34 -13 -56 -46.5t-22 -69.5z" />
<glyph unicode="&#xa8;" horiz-adv-x="901" d="M53 1235l43 301h312l-43 -301h-312zM504 1235l43 301h311l-43 -301h-311z" />
<glyph unicode="&#xa9;" horiz-adv-x="1587" d="M84 705q0 147 57 280.5t154 229.5t231.5 153t282.5 57q196 0 363 -96t264.5 -262t97.5 -362q0 -198 -97.5 -365t-264 -263.5t-363.5 -96.5q-149 0 -283 57t-231 154t-154 231t-57 283zM240 705q0 -271 153.5 -431.5t415.5 -160.5q258 0 413.5 161t155.5 431 q0 267 -155.5 428t-413.5 161q-261 0 -415 -160.5t-154 -428.5zM414 637v131q0 162 111.5 265.5t269.5 103.5h32q158 0 257.5 -93t99.5 -266h-242v43q0 56 -36 89.5t-93 33.5q-51 0 -87 -36t-36 -87v-237q0 -51 36 -87t87 -36h18q53 0 88 32.5t35 90.5v41h230 q0 -163 -97.5 -260t-248.5 -97h-35q-167 0 -278 99t-111 270z" />
<glyph unicode="&#xaa;" horiz-adv-x="856" d="M129 1020q0 71 17 140t51 129.5t93.5 98t135.5 37.5q106 0 166 -88h8l41 76h184l-32 -219l-13 -82q-20 -133 -20 -160q0 -34 33 -34q17 0 45 16l-19 -135q-63 -29 -127 -29q-68 0 -110 19.5t-58 76.5q-33 -43 -82.5 -69.5t-101.5 -26.5q-109 0 -160 68.5t-51 181.5z M371 991q0 -31 18 -51t47 -20q39 0 61 24t27 62l13 88q2 18 6 43.5t6 41t2 21.5q0 34 -18 53t-48 19q-35 0 -59 -25t-29 -63q-26 -176 -26 -185v-8z" />
<glyph unicode="&#xab;" horiz-adv-x="905" d="M76 690l295 357h151l-223 -357l123 -356h-152zM446 690l295 357h152l-223 -357l123 -356h-152z" />
<glyph unicode="&#xac;" horiz-adv-x="1271" d="M76 684l43 307h1102l-93 -667h-307l49 360h-794z" />
<glyph unicode="&#xad;" horiz-adv-x="718" d="M72 401l45 324h520l-47 -324h-518z" />
<glyph unicode="&#xae;" horiz-adv-x="1587" d="M84 705q0 147 57 280.5t154 229.5t231.5 153t282.5 57q196 0 363 -96t264.5 -262t97.5 -362q0 -198 -97.5 -365t-264 -263.5t-363.5 -96.5q-149 0 -283 57t-231 154t-154 231t-57 283zM240 705q0 -271 153.5 -431.5t415.5 -160.5q258 0 413.5 161t155.5 431 q0 267 -155.5 428t-413.5 161q-261 0 -415 -160.5t-154 -428.5zM471 276v844h473q95 0 164.5 -58.5t69.5 -150.5q0 -68 -43 -121t-109 -65l-2 -6q69 -22 103 -84.5t34 -145.5q0 -134 62 -151v-49q-60 -25 -148 -25q-86 0 -129 36.5t-43 123.5q0 25 -1 42.5t-4 43t-10.5 43 t-19 34.5t-31 25.5t-44.5 8.5h-70v-345h-252zM723 797h129q26 0 43.5 17.5t17.5 43.5v21q0 26 -17.5 43.5t-43.5 17.5h-129v-143z" />
<glyph unicode="&#xaf;" horiz-adv-x="942" d="M145 1356v151h652v-151h-652z" />
<glyph unicode="&#xb0;" horiz-adv-x="724" d="M125 1075q0 139 107.5 244.5t246.5 105.5q114 0 190 -77.5t76 -188.5q0 -133 -107 -240.5t-247 -107.5q-116 0 -191 75.5t-75 188.5zM303 1102q0 -48 32 -80.5t81 -32.5q58 0 101.5 43.5t43.5 102.5q0 47 -31.5 77.5t-80.5 30.5q-54 0 -100 -42.5t-46 -98.5z" />
<glyph unicode="&#xb1;" d="M23 0l36 262h1049l-37 -262h-1048zM100 557l37 262h393l31 230h262l-30 -230h393l-37 -262h-393l-33 -229h-262l33 229h-394z" />
<glyph unicode="&#xb2;" horiz-adv-x="755" d="M115 864l4 39q6 62 32.5 105.5t81.5 85.5l244 188q76 58 76 129q0 29 -17.5 46.5t-46.5 17.5h-14q-33 0 -59.5 -22t-30.5 -54l-4 -31h-195q0 32 9.5 67t33 73.5t58.5 68.5t92 50t127 20h35q111 0 175 -57t64 -152q0 -42 -10 -79t-32 -68.5t-44 -56.5t-58 -52t-62.5 -45 t-69.5 -45t-66 -43h289l-25 -185h-587z" />
<glyph unicode="&#xb3;" horiz-adv-x="724" d="M106 1036q0 12 7 51h194q0 -37 15 -57t61 -20h29q48 0 75 29.5t27 78.5q0 66 -68 66h-112l20 135h97q36 0 61 22t25 72q0 27 -17.5 45.5t-46.5 18.5h-20q-32 0 -56.5 -20.5t-29.5 -49.5h-185q0 103 89 168t218 65h33q108 0 173 -51t65 -131q0 -64 -37.5 -118t-93.5 -78 q100 -40 100 -158q0 -65 -28 -116.5t-74.5 -81.5t-101.5 -45t-115 -15h-45q-125 0 -192 52.5t-67 137.5z" />
<glyph unicode="&#xb4;" horiz-adv-x="681" d="M63 1178l230 297h309l2 -7l-299 -290h-242z" />
<glyph unicode="&#xb6;" horiz-adv-x="1191" d="M94 895q0 101 42 195t111 163t162.5 110.5t192.5 41.5h633l-23 -162h-135l-221 -1573h-180l221 1573h-156l-221 -1573h-180l119 848q-159 4 -262 112.5t-103 264.5z" />
<glyph unicode="&#xb7;" horiz-adv-x="587" d="M72 403l51 375h391l-51 -375h-391z" />
<glyph unicode="&#xb8;" horiz-adv-x="684" d="M80 -330l82 111q13 -15 41 -33q56 -33 123 -33q92 0 92 80q0 49 -70 49h-37l17 121h43q225 0 225 -153v-17q0 -10 -2 -16q-8 -53 -37 -91t-70 -56.5t-80 -26.5t-79 -8q-75 0 -141.5 18.5t-106.5 54.5z" />
<glyph unicode="&#xb9;" horiz-adv-x="686" d="M117 864l24 168h168l49 352h-168l19 127q70 4 159.5 38.5t166.5 80.5h73l-84 -598h160l-25 -168h-542z" />
<glyph unicode="&#xba;" horiz-adv-x="808" d="M123 1038q0 71 23 138.5t67.5 124t118.5 90.5t168 34h20q145 0 224 -71.5t79 -192.5q0 -168 -105.5 -277.5t-271.5 -109.5h-18q-146 0 -225.5 71.5t-79.5 192.5zM375 995q0 -31 21 -52t53 -21q39 0 64.5 24.5t31.5 61.5l12 90q2 19 6 44.5t6 40.5t2 19q0 31 -19.5 53.5 t-53.5 22.5q-36 0 -64 -25t-33 -61l-14 -94q-12 -94 -12 -103z" />
<glyph unicode="&#xbb;" horiz-adv-x="907" d="M39 334l225 356l-125 357h152l196 -357l-297 -356h-151zM410 334l225 356l-125 357h152l196 -357l-297 -356h-151z" />
<glyph unicode="&#xbc;" horiz-adv-x="1566" d="M80 637l24 168h168l50 352h-168l16 127q71 4 161 38.5t167 80.5h73l-84 -598h160l-24 -168h-543zM211 0l1059 1405h176l-1053 -1405h-182zM827 166l23 166q53 72 128.5 213.5t104.5 222.5h195q-23 -83 -116 -220.5t-169 -217.5h166l17 112q33 41 82.5 124t66.5 128h92 l-51 -364h109l-23 -164h-109l-24 -166h-207l25 166h-310z" />
<glyph unicode="&#xbd;" horiz-adv-x="1566" d="M74 639l24 168h168l49 352h-168l19 127q70 4 159.5 38.5t166.5 80.5h73l-84 -598h160l-25 -168h-542zM205 0l1059 1405h176l-1053 -1405h-182zM838 0l4 39q6 62 32.5 105t81.5 85l244 189q76 58 76 129q0 29 -17.5 46t-46.5 17h-14q-33 0 -59.5 -21.5t-30.5 -53.5l-4 -31 h-195q0 32 9.5 67t33 73t58.5 68.5t92 50t127 19.5h35q111 0 175 -57t64 -152q0 -42 -10 -79t-32 -68.5t-44 -56.5t-58 -52t-62.5 -45t-69.5 -45t-66 -43h289l-25 -184h-587z" />
<glyph unicode="&#xbe;" horiz-adv-x="1550" d="M88 815q0 18 6 51h195q0 -37 15 -57.5t61 -20.5h28q48 0 75.5 30t27.5 79q0 66 -68 66h-113l21 135h96q36 0 61 22t25 72q0 27 -17 45t-46 18h-21q-32 0 -56.5 -20t-29.5 -49h-184q0 103 89 168t218 65h33q108 0 172.5 -51t64.5 -131q0 -64 -37.5 -118.5t-93.5 -78.5 q101 -40 101 -157q0 -65 -28 -116.5t-74.5 -81.5t-102 -45t-115.5 -15h-45q-125 0 -191.5 52.5t-66.5 137.5zM197 0l1056 1405h177l-1051 -1405h-182zM811 166l25 166q56 85 131 222.5t102 213.5h195q-23 -83 -117.5 -223t-169.5 -215h166l16 112q33 41 83 124.5t67 127.5 h92l-51 -364h108l-22 -164h-109l-22 -166h-207l22 166h-309z" />
<glyph unicode="&#xbf;" horiz-adv-x="1183" d="M-25 4q0 76 22.5 141t59 110.5t80.5 83.5t88.5 66t82 52t63 48t28.5 48l7 45h350l-19 -121q-6 -39 -33 -78.5t-63 -70.5t-77 -67t-75 -69t-56.5 -77t-22.5 -90q0 -53 31.5 -88t84.5 -35q49 0 83 21t50.5 56.5t23.5 71.5t7 78h377q-1 -9 -1 -25t-1 -28.5t-4 -24.5 q-29 -198 -188.5 -315t-385.5 -117h-77q-118 0 -217 47t-158.5 136t-59.5 202zM391 672l51 375h392l-52 -375h-391z" />
<glyph unicode="&#xc0;" horiz-adv-x="1452" d="M-90 0l665 1405h535l270 -1405h-446l-49 250h-447l-116 -250h-412zM508 1827l6 6h309l144 -297h-242zM580 547h249l-59 426h-10z" />
<glyph unicode="&#xc1;" horiz-adv-x="1452" d="M-90 0l665 1405h535l270 -1405h-446l-49 250h-447l-116 -250h-412zM580 547h249l-59 426h-10zM729 1536l229 297h310l2 -6l-299 -291h-242z" />
<glyph unicode="&#xc2;" horiz-adv-x="1452" d="M-90 0l665 1405h535l270 -1405h-446l-49 250h-447l-116 -250h-412zM432 1538l328 297h262l242 -297h-267l-129 158l-174 -158h-262zM580 547h249l-59 426h-10z" />
<glyph unicode="&#xc3;" horiz-adv-x="1452" d="M-90 0l665 1405h535l270 -1405h-446l-49 250h-447l-116 -250h-412zM387 1528q18 116 110.5 204.5t217.5 88.5q68 0 178.5 -41t163.5 -41q74 0 114 82h166q-18 -117 -109.5 -205t-219.5 -88q-68 0 -179 41t-163 41q-37 0 -67 -22.5t-48 -59.5h-164zM580 547h249l-59 426 h-10z" />
<glyph unicode="&#xc4;" horiz-adv-x="1452" d="M-90 0l665 1405h535l270 -1405h-446l-49 250h-447l-116 -250h-412zM467 1536l43 301h311l-43 -301h-311zM580 547h249l-59 426h-10zM918 1536l43 301h311l-43 -301h-311z" />
<glyph unicode="&#xc5;" horiz-adv-x="1452" d="M-90 0l665 1405h535l270 -1405h-446l-49 250h-447l-116 -250h-412zM580 547h249l-59 426h-10zM659 1686q0 95 71.5 164t168.5 69q77 0 127.5 -50.5t50.5 -125.5q0 -98 -69.5 -167t-167.5 -69q-78 0 -129.5 50.5t-51.5 128.5zM797 1702q0 -27 17 -44.5t46 -17.5 q33 0 57.5 21t24.5 59q0 29 -17 46.5t-46 17.5q-35 0 -58.5 -23.5t-23.5 -58.5z" />
<glyph unicode="&#xc6;" horiz-adv-x="2070" d="M-109 0l863 1405h1374l-86 -324h-737l10 -204h674l-43 -314h-615l12 -227h586v-336h-1016l-14 250h-446l-154 -250h-408zM637 547h250v426h-10z" />
<glyph unicode="&#xc7;" horiz-adv-x="1400" d="M55 496q0 31 39 315q24 182 125 322t256.5 216t339.5 76h57q234 0 376.5 -125.5t142.5 -357.5q0 -54 -9 -113h-403l10 72q2 6 2 17v18q0 78 -49.5 124t-128.5 46h-10q-100 0 -160.5 -57t-73.5 -148l-55 -395q-2 -6 -2 -14v-15q0 -75 50 -125.5t128 -50.5h29q103 0 159 52 t74 153l11 67h385q-42 -279 -214.5 -436t-447.5 -157h-57q-166 0 -295 59.5t-204 177.5t-75 279zM317 -330l82 111q13 -15 41 -33q56 -33 123 -33q92 0 92 80q0 49 -69 49h-37l16 121h43q226 0 226 -153v-17q0 -7 -3 -16q-8 -53 -37 -91t-70 -56.5t-80 -26.5t-79 -8 q-75 0 -141.5 18.5t-106.5 54.5z" />
<glyph unicode="&#xc8;" horiz-adv-x="1228" d="M33 0l198 1405h1055l-86 -324h-592l-30 -204h569l-43 -314h-569l-33 -227h585v-336h-1054zM442 1829l7 6h309l143 -297h-242z" />
<glyph unicode="&#xc9;" horiz-adv-x="1228" d="M33 0l198 1405h1055l-86 -324h-592l-30 -204h569l-43 -314h-569l-33 -227h585v-336h-1054zM631 1536l229 297h309l2 -6l-299 -291h-241z" />
<glyph unicode="&#xca;" horiz-adv-x="1228" d="M33 0l198 1405h1055l-86 -324h-592l-30 -204h569l-43 -314h-569l-33 -227h585v-336h-1054zM360 1538l328 297h262l242 -297h-266l-129 158l-174 -158h-263z" />
<glyph unicode="&#xcb;" horiz-adv-x="1228" d="M33 0l198 1405h1055l-86 -324h-592l-30 -204h569l-43 -314h-569l-33 -227h585v-336h-1054zM375 1538l43 301h311l-43 -301h-311zM825 1538l43 301h312l-43 -301h-312z" />
<glyph unicode="&#xcc;" horiz-adv-x="913" d="M-10 0l43 303h166l112 801h-166l43 301h766l-43 -301h-166l-112 -801h166l-43 -303h-766zM233 1827l7 6h309l143 -297h-241z" />
<glyph unicode="&#xcd;" horiz-adv-x="913" d="M-10 0l43 303h166l112 801h-166l43 301h766l-43 -301h-166l-112 -801h166l-43 -303h-766zM459 1536l229 297h309l2 -6l-299 -291h-241z" />
<glyph unicode="&#xce;" horiz-adv-x="913" d="M-10 0l43 303h166l112 801h-166l43 301h766l-43 -301h-166l-112 -801h166l-43 -303h-766zM166 1536l328 297h262l241 -297h-266l-129 158l-174 -158h-262z" />
<glyph unicode="&#xcf;" horiz-adv-x="913" d="M-10 0l43 303h166l112 801h-166l43 301h766l-43 -301h-166l-112 -801h166l-43 -303h-766zM201 1536l43 301h311l-43 -301h-311zM651 1536l43 301h312l-43 -301h-312z" />
<glyph unicode="&#xd0;" horiz-adv-x="1470" d="M10 608l27 193h151l86 604h633q153 0 275.5 -69.5t191 -190t68.5 -268.5q0 -43 -6 -86l-27 -177q-19 -128 -75 -239.5t-143.5 -195t-212 -131.5t-269.5 -48h-633l86 608h-152zM557 326h158q100 0 160 56.5t73 147.5l49 351l2 26q0 76 -50.5 127t-127.5 51h-157l-41 -284 h157l-26 -193h-158z" />
<glyph unicode="&#xd1;" horiz-adv-x="1425" d="M33 0l198 1405h361l287 -522l34 -70l23 -45l90 637h397l-198 -1405h-369l-278 504q-4 6 -35 65l-27 54l-88 -623h-395zM395 1528q18 116 110.5 204.5t217.5 88.5q68 0 178.5 -41t163.5 -41q37 0 67 22.5t48 59.5h166q-18 -117 -110 -205t-220 -88q-68 0 -179 41t-163 41 q-37 0 -67 -22.5t-48 -59.5h-164z" />
<glyph unicode="&#xd2;" horiz-adv-x="1472" d="M57 508q0 22 1.5 40.5t4 37t12 84t19.5 137.5q25 171 117.5 309.5t245.5 221.5t338 83h114q153 0 275.5 -69.5t191 -190t68.5 -268.5q0 -26 -1.5 -45t-4 -37.5t-12 -80.5t-19.5 -136q-18 -128 -76.5 -239.5t-147 -195t-212 -131.5t-264.5 -48h-115q-153 0 -275.5 69.5 t-191 190t-68.5 268.5zM512 477q0 -75 50 -125.5t128 -50.5h10q100 0 160.5 57t73.5 148l55 395q2 6 2 29q0 74 -50.5 125t-127.5 51h-10q-100 0 -160.5 -57t-73.5 -148l-55 -395q-2 -6 -2 -14v-15zM514 1827l6 6h309l144 -297h-242z" />
<glyph unicode="&#xd3;" horiz-adv-x="1472" d="M57 508q0 22 1.5 40.5t4 37t12 84t19.5 137.5q25 171 117.5 309.5t245.5 221.5t338 83h114q153 0 275.5 -69.5t191 -190t68.5 -268.5q0 -26 -1.5 -45t-4 -37.5t-12 -80.5t-19.5 -136q-18 -128 -76.5 -239.5t-147 -195t-212 -131.5t-264.5 -48h-115q-153 0 -275.5 69.5 t-191 190t-68.5 268.5zM512 477q0 -75 50 -125.5t128 -50.5h10q100 0 160.5 57t73.5 148l55 395q2 6 2 29q0 74 -50.5 125t-127.5 51h-10q-100 0 -160.5 -57t-73.5 -148l-55 -395q-2 -6 -2 -14v-15zM758 1536l229 297h309l2 -6l-299 -291h-241z" />
<glyph unicode="&#xd4;" horiz-adv-x="1472" d="M57 508q0 22 1.5 40.5t4 37t12 84t19.5 137.5q25 171 117.5 309.5t245.5 221.5t338 83h114q153 0 275.5 -69.5t191 -190t68.5 -268.5q0 -26 -1.5 -45t-4 -37.5t-12 -80.5t-19.5 -136q-18 -128 -76.5 -239.5t-147 -195t-212 -131.5t-264.5 -48h-115q-153 0 -275.5 69.5 t-191 190t-68.5 268.5zM455 1536l327 297h262l242 -297h-266l-129 158l-174 -158h-262zM512 477q0 -75 50 -125.5t128 -50.5h10q100 0 160.5 57t73.5 148l55 395q2 6 2 29q0 74 -50.5 125t-127.5 51h-10q-100 0 -160.5 -57t-73.5 -148l-55 -395q-2 -6 -2 -14v-15z" />
<glyph unicode="&#xd5;" horiz-adv-x="1472" d="M57 508q0 22 1.5 40.5t4 37t12 84t19.5 137.5q25 171 117.5 309.5t245.5 221.5t338 83h114q153 0 275.5 -69.5t191 -190t68.5 -268.5q0 -26 -1.5 -45t-4 -37.5t-12 -80.5t-19.5 -136q-18 -128 -76.5 -239.5t-147 -195t-212 -131.5t-264.5 -48h-115q-153 0 -275.5 69.5 t-191 190t-68.5 268.5zM430 1526q18 116 110.5 204.5t217.5 88.5q68 0 178.5 -41t163.5 -41q74 0 114 82h166q-18 -117 -109.5 -205t-219.5 -88q-68 0 -179 41t-163 41q-37 0 -67 -22.5t-48 -59.5h-164zM512 477q0 -75 50 -125.5t128 -50.5h10q100 0 160.5 57t73.5 148 l55 395q2 6 2 29q0 74 -50.5 125t-127.5 51h-10q-100 0 -160.5 -57t-73.5 -148l-55 -395q-2 -6 -2 -14v-15z" />
<glyph unicode="&#xd6;" horiz-adv-x="1472" d="M57 508q0 22 1.5 40.5t4 37t12 84t19.5 137.5q25 171 117.5 309.5t245.5 221.5t338 83h114q153 0 275.5 -69.5t191 -190t68.5 -268.5q0 -26 -1.5 -45t-4 -37.5t-12 -80.5t-19.5 -136q-18 -128 -76.5 -239.5t-147 -195t-212 -131.5t-264.5 -48h-115q-153 0 -275.5 69.5 t-191 190t-68.5 268.5zM498 1536l43 301h311l-43 -301h-311zM512 477q0 -75 50 -125.5t128 -50.5h10q100 0 160.5 57t73.5 148l55 395q2 6 2 29q0 74 -50.5 125t-127.5 51h-10q-100 0 -160.5 -57t-73.5 -148l-55 -395q-2 -6 -2 -14v-15zM948 1536l43 301h312l-43 -301h-312z " />
<glyph unicode="&#xd7;" d="M115 246l317 278l-237 279l208 184l240 -276l318 276l159 -184l-315 -279l235 -278l-209 -185l-239 277l-318 -277z" />
<glyph unicode="&#xd8;" horiz-adv-x="1472" d="M8 -133l199 264q-150 150 -150 377q0 22 1.5 40.5t4 37t12 84t19.5 137.5q25 171 117.5 309.5t245.5 221.5t338 83h114q121 0 230 -47l127 170h221l-201 -268q158 -155 158 -383q0 -26 -1.5 -45t-4 -37.5t-12 -80.5t-19.5 -136q-18 -128 -76.5 -239.5t-147 -195 t-212 -131.5t-264.5 -48h-115q-124 0 -242 51l-123 -164h-219zM520 549l393 526q-48 31 -100 31h-10q-100 0 -160.5 -57t-73.5 -148zM580 336q47 -35 110 -35h10q100 0 160.5 57t73.5 148l51 371z" />
<glyph unicode="&#xd9;" horiz-adv-x="1406" d="M80 373q0 35 6 73l133 959h432l-133 -952q-2 -6 -2 -23q0 -59 42 -95t106 -36q83 0 129 41.5t57 112.5l133 952h430l-133 -959q-33 -218 -190 -342t-428 -124h-89q-228 0 -360.5 106t-132.5 287zM489 1827l7 6h309l143 -297h-241z" />
<glyph unicode="&#xda;" horiz-adv-x="1406" d="M80 373q0 35 6 73l133 959h432l-133 -952q-2 -6 -2 -23q0 -59 42 -95t106 -36q83 0 129 41.5t57 112.5l133 952h430l-133 -959q-33 -218 -190 -342t-428 -124h-89q-228 0 -360.5 106t-132.5 287zM707 1536l229 297h309l2 -6l-299 -291h-241z" />
<glyph unicode="&#xdb;" horiz-adv-x="1406" d="M80 373q0 35 6 73l133 959h432l-133 -952q-2 -6 -2 -23q0 -59 42 -95t106 -36q83 0 129 41.5t57 112.5l133 952h430l-133 -959q-33 -218 -190 -342t-428 -124h-89q-228 0 -360.5 106t-132.5 287zM416 1536l327 297h263l241 -297h-266l-129 158l-174 -158h-262z" />
<glyph unicode="&#xdc;" horiz-adv-x="1406" d="M80 373q0 35 6 73l133 959h432l-133 -952q-2 -6 -2 -23q0 -59 42 -95t106 -36q83 0 129 41.5t57 112.5l133 952h430l-133 -959q-33 -218 -190 -342t-428 -124h-89q-228 0 -360.5 106t-132.5 287zM446 1536l43 301h312l-43 -301h-312zM897 1536l43 301h311l-43 -301h-311z " />
<glyph unicode="&#xdd;" horiz-adv-x="1318" d="M90 1405h483l146 -461h10l281 461h440l-588 -868l-76 -537h-428l76 537zM686 1536l229 297h310l2 -6l-299 -291h-242z" />
<glyph unicode="&#xde;" horiz-adv-x="1323" d="M33 0l198 1405h428l-30 -211h319q163 0 269 -107t106 -264q0 -141 -64.5 -261t-180 -191.5t-255.5 -71.5h-319l-43 -299h-428zM547 602h211q41 0 75.5 30t40.5 73q2 14 3 26.5t2 20t2 13.5t1 9t0.5 5.5t0.5 4v2.5q0 38 -25 63t-63 25h-211z" />
<glyph unicode="&#xdf;" horiz-adv-x="1335" d="M74 756l41 291h127q20 112 79.5 199.5t143.5 139.5t179 78.5t196 26.5q87 0 166.5 -18t149 -54.5t110.5 -102t41 -151.5q0 -115 -66 -215.5t-174 -140.5v-10q92 -35 145.5 -117.5t53.5 -185.5q0 -221 -156 -358.5t-408 -137.5h-129l43 303h58q74 0 133 62t59 141 q0 66 -40 108.5t-103 42.5h-57l34 250h56q59 0 106 47t47 113q0 51 -31.5 85t-80.5 34q-56 0 -99.5 -39.5t-50.5 -99.5l-166 -1182h-405l125 891h-127z" />
<glyph unicode="&#xe0;" horiz-adv-x="1286" d="M35 395q0 76 12.5 152.5t37 152.5t65 141.5t93 116.5t125.5 80t158 29t160.5 -37.5t118.5 -107.5h10l70 125h305q-33 -194 -55 -365q-54 -368 -54 -401q0 -56 54 -56q31 0 75 27l-30 -225q-89 -47 -211 -47q-52 0 -92 5.5t-80.5 21.5t-67.5 49t-39 83 q-56 -70 -138 -114.5t-167 -44.5q-92 0 -161 32t-109.5 90t-60 131t-19.5 162zM379 1468l6 7h309l144 -297h-242zM436 348q0 -54 30.5 -87.5t78.5 -33.5q63 0 101 40.5t46 103.5l21 147q22 167 22 174q0 58 -29.5 88.5t-78.5 30.5q-56 0 -98 -41t-50 -102q-43 -303 -43 -320 z" />
<glyph unicode="&#xe1;" horiz-adv-x="1286" d="M35 395q0 76 12.5 152.5t37 152.5t65 141.5t93 116.5t125.5 80t158 29t160.5 -37.5t118.5 -107.5h10l70 125h305q-33 -194 -55 -365q-54 -368 -54 -401q0 -56 54 -56q31 0 75 27l-30 -225q-89 -47 -211 -47q-52 0 -92 5.5t-80.5 21.5t-67.5 49t-39 83 q-56 -70 -138 -114.5t-167 -44.5q-92 0 -161 32t-109.5 90t-60 131t-19.5 162zM436 348q0 -54 30.5 -87.5t78.5 -33.5q63 0 101 40.5t46 103.5l21 147q22 167 22 174q0 58 -29.5 88.5t-78.5 30.5q-56 0 -98 -41t-50 -102q-43 -303 -43 -320zM541 1178l229 297h309l2 -7 l-299 -290h-241z" />
<glyph unicode="&#xe2;" horiz-adv-x="1286" d="M35 395q0 76 12.5 152.5t37 152.5t65 141.5t93 116.5t125.5 80t158 29t160.5 -37.5t118.5 -107.5h10l70 125h305q-33 -194 -55 -365q-54 -368 -54 -401q0 -56 54 -56q31 0 75 27l-30 -225q-89 -47 -211 -47q-52 0 -92 5.5t-80.5 21.5t-67.5 49t-39 83 q-56 -70 -138 -114.5t-167 -44.5q-92 0 -161 32t-109.5 90t-60 131t-19.5 162zM303 1178l328 297h262l242 -297h-267l-129 157l-174 -157h-262zM436 348q0 -54 30.5 -87.5t78.5 -33.5q63 0 101 40.5t46 103.5l21 147q22 167 22 174q0 58 -29.5 88.5t-78.5 30.5 q-56 0 -98 -41t-50 -102q-43 -303 -43 -320z" />
<glyph unicode="&#xe3;" horiz-adv-x="1286" d="M35 395q0 76 12.5 152.5t37 152.5t65 141.5t93 116.5t125.5 80t158 29t160.5 -37.5t118.5 -107.5h10l70 125h305q-33 -194 -55 -365q-54 -368 -54 -401q0 -56 54 -56q31 0 75 27l-30 -225q-89 -47 -211 -47q-52 0 -92 5.5t-80.5 21.5t-67.5 49t-39 83 q-56 -70 -138 -114.5t-167 -44.5q-92 0 -161 32t-109.5 90t-60 131t-19.5 162zM250 1182q18 116 110.5 204.5t217.5 88.5q68 0 178.5 -41t163.5 -41q74 0 114 82h166q-18 -117 -110 -205t-220 -88q-68 0 -179 41t-163 41q-74 0 -114 -82h-164zM436 348q0 -54 30.5 -87.5 t78.5 -33.5q63 0 101 40.5t46 103.5l21 147q22 167 22 174q0 58 -29.5 88.5t-78.5 30.5q-56 0 -98 -41t-50 -102q-43 -303 -43 -320z" />
<glyph unicode="&#xe4;" horiz-adv-x="1286" d="M35 395q0 76 12.5 152.5t37 152.5t65 141.5t93 116.5t125.5 80t158 29t160.5 -37.5t118.5 -107.5h10l70 125h305q-33 -194 -55 -365q-54 -368 -54 -401q0 -56 54 -56q31 0 75 27l-30 -225q-89 -47 -211 -47q-52 0 -92 5.5t-80.5 21.5t-67.5 49t-39 83 q-56 -70 -138 -114.5t-167 -44.5q-92 0 -161 32t-109.5 90t-60 131t-19.5 162zM360 1174l43 301h312l-43 -301h-312zM436 348q0 -54 30.5 -87.5t78.5 -33.5q63 0 101 40.5t46 103.5l21 147q22 167 22 174q0 58 -29.5 88.5t-78.5 30.5q-56 0 -98 -41t-50 -102 q-43 -303 -43 -320zM811 1174l43 301h311l-43 -301h-311z" />
<glyph unicode="&#xe5;" horiz-adv-x="1286" d="M35 395q0 76 12.5 152.5t37 152.5t65 141.5t93 116.5t125.5 80t158 29t160.5 -37.5t118.5 -107.5h10l70 125h305q-33 -194 -55 -365q-54 -368 -54 -401q0 -56 54 -56q31 0 75 27l-30 -225q-89 -47 -211 -47q-52 0 -92 5.5t-80.5 21.5t-67.5 49t-39 83 q-56 -70 -138 -114.5t-167 -44.5q-92 0 -161 32t-109.5 90t-60 131t-19.5 162zM436 348q0 -54 30.5 -87.5t78.5 -33.5q63 0 101 40.5t46 103.5l21 147q22 167 22 174q0 58 -29.5 88.5t-78.5 30.5q-56 0 -98 -41t-50 -102q-43 -303 -43 -320zM549 1323q0 95 71 164t168 69 q78 0 128.5 -50.5t50.5 -125.5q0 -98 -69.5 -166.5t-168.5 -68.5q-78 0 -129 50t-51 128zM686 1339q0 -27 17.5 -44t46.5 -17q32 0 56.5 20.5t24.5 59.5q0 29 -17 46t-46 17q-35 0 -58.5 -23.5t-23.5 -58.5z" />
<glyph unicode="&#xe6;" horiz-adv-x="1892" d="M2 233q0 101 35.5 174.5t96.5 119t157 73t202.5 37.5t247.5 10l4 35q1 8 4 25t3 22q0 48 -32.5 74t-84.5 26q-48 0 -95 -28t-51 -68l-2 -8h-389q0 142 152.5 242t386.5 100h68q199 0 319 -70q143 70 319 70h52q214 0 329 -106.5t115 -284.5v-21l-4 -34q-2 -30 -18 -152 h-682l-15 -98q-2 -6 -2 -23q0 -58 38.5 -89.5t100.5 -31.5q72 0 117 44.5t56 121.5h374q-26 -179 -180 -296t-389 -117h-31q-256 0 -395 139q-80 -63 -199.5 -101t-251.5 -38q-54 0 -98 4.5t-94 20.5t-84 42.5t-57 74t-23 111.5zM432 305q0 -78 111 -78q57 0 103 40t56 104 l13 90q-146 0 -214.5 -42.5t-68.5 -113.5zM1159 647h283q0 15 2 21q0 6 1 15t1 11q0 54 -33.5 89.5t-87.5 35.5q-62 0 -108 -41t-54 -102z" />
<glyph unicode="&#xe7;" horiz-adv-x="1163" d="M33 406q0 136 41.5 255t119.5 210t200 143.5t274 52.5q79 0 145.5 -13t112.5 -35t82 -52.5t57.5 -63.5t35 -70.5t18.5 -70t5 -66.5q0 -36 -6 -73h-344q0 22 2 32q4 32 4 39q0 54 -33.5 89.5t-87.5 35.5q-69 0 -111 -40t-50 -103q-10 -56 -23 -152q-22 -126 -22 -174 q0 -55 36 -89t101 -34q95 0 141 72q23 33 29 72l8 53h324q-32 -211 -179 -327.5t-372 -116.5q-126 0 -225.5 35t-160 95t-91.5 135t-31 161zM219 -330l82 111q13 -15 41 -33q56 -33 123 -33q92 0 92 80q0 49 -70 49h-36l16 121h43q225 0 225 -153v-17q0 -10 -2 -16 q-8 -53 -37 -91t-70 -56.5t-80 -26.5t-79 -8q-75 0 -141.5 18.5t-106.5 54.5z" />
<glyph unicode="&#xe8;" horiz-adv-x="1228" d="M33 410q0 202 83.5 352t229 227.5t334.5 77.5h51q214 0 329.5 -106.5t115.5 -284.5v-21l-5 -34q-2 -30 -18 -152h-682l-8 -51q-8 -36 -8 -70q0 -58 38.5 -89.5t100.5 -31.5q72 0 116.5 44.5t55.5 121.5h375q-26 -179 -180.5 -296t-389.5 -117h-30q-226 0 -367 115 t-141 315zM375 1468l6 7h309l144 -297h-242zM496 647h282q0 9 2 15q0 3 1 13.5t1 18.5q0 55 -33.5 90t-86.5 35q-60 0 -107.5 -41.5t-54.5 -101.5z" />
<glyph unicode="&#xe9;" horiz-adv-x="1228" d="M33 410q0 202 83.5 352t229 227.5t334.5 77.5h51q214 0 329.5 -106.5t115.5 -284.5v-21l-5 -34q-2 -30 -18 -152h-682l-8 -51q-8 -36 -8 -70q0 -58 38.5 -89.5t100.5 -31.5q72 0 116.5 44.5t55.5 121.5h375q-26 -179 -180.5 -296t-389.5 -117h-30q-226 0 -367 115 t-141 315zM496 647h282q0 9 2 15q0 3 1 13.5t1 18.5q0 55 -33.5 90t-86.5 35q-60 0 -107.5 -41.5t-54.5 -101.5zM584 1178l229 297h309l2 -7l-299 -290h-241z" />
<glyph unicode="&#xea;" horiz-adv-x="1228" d="M33 410q0 202 83.5 352t229 227.5t334.5 77.5h51q214 0 329.5 -106.5t115.5 -284.5v-21l-5 -34q-2 -30 -18 -152h-682l-8 -51q-8 -36 -8 -70q0 -58 38.5 -89.5t100.5 -31.5q72 0 116.5 44.5t55.5 121.5h375q-26 -179 -180.5 -296t-389.5 -117h-30q-226 0 -367 115 t-141 315zM324 1178l327 297h262l242 -297h-266l-129 157l-174 -157h-262zM496 647h282q0 9 2 15q0 3 1 13.5t1 18.5q0 55 -33.5 90t-86.5 35q-60 0 -107.5 -41.5t-54.5 -101.5z" />
<glyph unicode="&#xeb;" horiz-adv-x="1228" d="M33 410q0 202 83.5 352t229 227.5t334.5 77.5h51q214 0 329.5 -106.5t115.5 -284.5v-21l-5 -34q-2 -30 -18 -152h-682l-8 -51q-8 -36 -8 -70q0 -58 38.5 -89.5t100.5 -31.5q72 0 116.5 44.5t55.5 121.5h375q-26 -179 -180.5 -296t-389.5 -117h-30q-226 0 -367 115 t-141 315zM336 1174l43 301h311l-43 -301h-311zM496 647h282q0 9 2 15q0 3 1 13.5t1 18.5q0 55 -33.5 90t-86.5 35q-60 0 -107.5 -41.5t-54.5 -101.5zM786 1174l43 301h312l-43 -301h-312z" />
<glyph unicode="&#xec;" horiz-adv-x="606" d="M18 0l146 1047h403l-145 -1047h-404zM98 1468l6 7h310l143 -297h-242z" />
<glyph unicode="&#xed;" horiz-adv-x="606" d="M18 0l146 1047h403l-145 -1047h-404zM188 1178l230 297h309l2 -7l-299 -290h-242z" />
<glyph unicode="&#xee;" horiz-adv-x="606" d="M-37 1178l328 297h262l242 -297h-267l-129 157l-174 -157h-262zM18 0l146 1047h403l-145 -1047h-404z" />
<glyph unicode="&#xef;" horiz-adv-x="606" d="M2 1174l43 301h311l-43 -301h-311zM18 0l146 1047h403l-145 -1047h-404zM453 1174l43 301h311l-43 -301h-311z" />
<glyph unicode="&#xf0;" horiz-adv-x="1255" d="M31 424q0 38 6 78l6 43q19 137 100.5 246.5t199 172.5t255.5 80q-4 61 -55 144l-146 -64l-104 105l164 71q-70 70 -154 103l4 8l246 102q104 -38 180 -90l156 68l96 -105l-129 -57q157 -139 250.5 -321.5t93.5 -370.5q0 -45 -6 -92l-6 -43q-21 -153 -109 -272.5 t-221 -184.5t-287 -65h-65q-215 0 -345 121.5t-130 322.5zM451 348q0 -54 34 -87.5t88 -33.5q56 0 104 42t58 102l43 305v18q0 54 -34.5 89.5t-88.5 35.5q-61 0 -106 -41t-53 -102l-43 -305q-2 -6 -2 -23z" />
<glyph unicode="&#xf1;" horiz-adv-x="1222" d="M16 0l148 1047h305l18 -152q132 172 371 172q143 0 219 -73.5t76 -190.5q0 -34 -35 -281l-20 -143q-3 -27 -54 -379h-405q5 40 47 326q47 335 47 350q0 45 -24.5 73.5t-69.5 28.5q-52 0 -84.5 -34.5t-40.5 -88.5l-92 -655h-406zM227 1182q18 116 110.5 204.5t217.5 88.5 q68 0 178.5 -41t163.5 -41q37 0 67 22.5t48 59.5h166q-18 -117 -110 -205t-220 -88q-68 0 -179 41t-163 41q-37 0 -67 -22.5t-48 -59.5h-164z" />
<glyph unicode="&#xf2;" horiz-adv-x="1255" d="M33 420q0 94 23 184.5t73.5 175t123 148t178 101.5t231.5 38h34q242 0 374 -119.5t132 -322.5q0 -185 -79.5 -332t-223 -230t-326.5 -83h-30q-245 0 -377.5 119.5t-132.5 320.5zM358 1468l7 7h309l143 -297h-242zM453 350q0 -54 34 -88.5t88 -34.5q65 0 108 40.5 t54 103.5l23 149q22 167 22 174q0 50 -34 87.5t-89 37.5q-61 0 -107 -41.5t-54 -101.5q-11 -68 -23 -158q-22 -126 -22 -168z" />
<glyph unicode="&#xf3;" horiz-adv-x="1255" d="M33 420q0 94 23 184.5t73.5 175t123 148t178 101.5t231.5 38h34q242 0 374 -119.5t132 -322.5q0 -185 -79.5 -332t-223 -230t-326.5 -83h-30q-245 0 -377.5 119.5t-132.5 320.5zM453 350q0 -54 34 -88.5t88 -34.5q65 0 108 40.5t54 103.5l23 149q22 167 22 174 q0 50 -34 87.5t-89 37.5q-61 0 -107 -41.5t-54 -101.5q-11 -68 -23 -158q-22 -126 -22 -168zM588 1178l229 297h309l2 -7l-299 -290h-241z" />
<glyph unicode="&#xf4;" horiz-adv-x="1255" d="M33 420q0 94 23 184.5t73.5 175t123 148t178 101.5t231.5 38h34q242 0 374 -119.5t132 -322.5q0 -185 -79.5 -332t-223 -230t-326.5 -83h-30q-245 0 -377.5 119.5t-132.5 320.5zM303 1178l328 297h262l242 -297h-267l-129 157l-174 -157h-262zM453 350q0 -54 34 -88.5 t88 -34.5q65 0 108 40.5t54 103.5l23 149q22 167 22 174q0 50 -34 87.5t-89 37.5q-61 0 -107 -41.5t-54 -101.5q-11 -68 -23 -158q-22 -126 -22 -168z" />
<glyph unicode="&#xf5;" horiz-adv-x="1255" d="M33 420q0 94 23 184.5t73.5 175t123 148t178 101.5t231.5 38h34q242 0 374 -119.5t132 -322.5q0 -185 -79.5 -332t-223 -230t-326.5 -83h-30q-245 0 -377.5 119.5t-132.5 320.5zM258 1182q18 116 110.5 204.5t217.5 88.5q68 0 178.5 -41t163.5 -41q74 0 114 82h166 q-18 -117 -109.5 -205t-219.5 -88q-68 0 -179 41t-163 41q-37 0 -67 -22.5t-48 -59.5h-164zM453 350q0 -54 34 -88.5t88 -34.5q65 0 108 40.5t54 103.5l23 149q22 167 22 174q0 50 -34 87.5t-89 37.5q-61 0 -107 -41.5t-54 -101.5q-11 -68 -23 -158q-22 -126 -22 -168z" />
<glyph unicode="&#xf6;" horiz-adv-x="1255" d="M33 420q0 94 23 184.5t73.5 175t123 148t178 101.5t231.5 38h34q242 0 374 -119.5t132 -322.5q0 -185 -79.5 -332t-223 -230t-326.5 -83h-30q-245 0 -377.5 119.5t-132.5 320.5zM332 1174l43 301h311l-43 -301h-311zM453 350q0 -54 34 -88.5t88 -34.5q65 0 108 40.5 t54 103.5l23 149q22 167 22 174q0 50 -34 87.5t-89 37.5q-61 0 -107 -41.5t-54 -101.5q-11 -68 -23 -158q-22 -126 -22 -168zM782 1174l43 301h312l-43 -301h-312z" />
<glyph unicode="&#xf7;" d="M78 395l37 262h1048l-37 -262h-1048zM424 35l37 260h260l-37 -260h-260zM524 756l37 260h260l-37 -260h-260z" />
<glyph unicode="&#xf8;" horiz-adv-x="1255" d="M29 -113l153 197q-149 119 -149 336q0 94 23 184.5t73.5 175t123 148t178 101.5t231.5 38h34q122 0 222 -35l102 133h188l-157 -202q151 -121 151 -338q0 -185 -79.5 -332t-223 -230t-326.5 -83h-30q-127 0 -228 34l-98 -127h-188zM465 449l268 346q-30 24 -74 24 q-61 0 -107 -41.5t-54 -101.5l-13 -78zM500 252q31 -25 75 -25q65 0 108 40.5t54 103.5q1 7 11 78q16 122 20 149z" />
<glyph unicode="&#xf9;" horiz-adv-x="1284" d="M49 244q0 45 53 424q20 161 56 379h405l-47 -326q-12 -75 -23.5 -158.5t-17.5 -133.5t-6 -58q0 -45 24.5 -74t69.5 -29q52 0 84.5 34.5t40.5 88.5l92 656h406q-46 -321 -53 -375q-54 -380 -54 -385q0 -29 17 -44.5t39 -15.5q26 0 47 9q3 1 26 10l-30 -219 q-27 -17 -58 -25q-61 -22 -155 -22q-131 0 -196 41.5t-83 123.5q-19 -24 -43 -46.5t-66.5 -52.5t-103 -48t-129.5 -18q-143 0 -219 73.5t-76 190.5zM346 1468l6 7h310l143 -297h-242z" />
<glyph unicode="&#xfa;" horiz-adv-x="1284" d="M49 244q0 45 53 424q20 161 56 379h405l-47 -326q-12 -75 -23.5 -158.5t-17.5 -133.5t-6 -58q0 -45 24.5 -74t69.5 -29q52 0 84.5 34.5t40.5 88.5l92 656h406q-46 -321 -53 -375q-54 -380 -54 -385q0 -29 17 -44.5t39 -15.5q26 0 47 9q3 1 26 10l-30 -219 q-27 -17 -58 -25q-61 -22 -155 -22q-131 0 -196 41.5t-83 123.5q-19 -24 -43 -46.5t-66.5 -52.5t-103 -48t-129.5 -18q-143 0 -219 73.5t-76 190.5zM547 1178l229 297h309l2 -7l-299 -290h-241z" />
<glyph unicode="&#xfb;" horiz-adv-x="1284" d="M49 244q0 45 53 424q20 161 56 379h405l-47 -326q-12 -75 -23.5 -158.5t-17.5 -133.5t-6 -58q0 -45 24.5 -74t69.5 -29q52 0 84.5 34.5t40.5 88.5l92 656h406q-46 -321 -53 -375q-54 -380 -54 -385q0 -29 17 -44.5t39 -15.5q26 0 47 9q3 1 26 10l-30 -219 q-27 -17 -58 -25q-61 -22 -155 -22q-131 0 -196 41.5t-83 123.5q-19 -24 -43 -46.5t-66.5 -52.5t-103 -48t-129.5 -18q-143 0 -219 73.5t-76 190.5zM276 1178l328 297h262l242 -297h-266l-129 157l-174 -157h-263z" />
<glyph unicode="&#xfc;" horiz-adv-x="1284" d="M49 244q0 45 53 424q20 161 56 379h405l-47 -326q-12 -75 -23.5 -158.5t-17.5 -133.5t-6 -58q0 -45 24.5 -74t69.5 -29q52 0 84.5 34.5t40.5 88.5l92 656h406q-46 -321 -53 -375q-54 -380 -54 -385q0 -29 17 -44.5t39 -15.5q26 0 47 9q3 1 26 10l-30 -219 q-27 -17 -58 -25q-61 -22 -155 -22q-131 0 -196 41.5t-83 123.5q-19 -24 -43 -46.5t-66.5 -52.5t-103 -48t-129.5 -18q-143 0 -219 73.5t-76 190.5zM305 1174l43 301h311l-43 -301h-311zM756 1174l43 301h311l-43 -301h-311z" />
<glyph unicode="&#xfd;" horiz-adv-x="1130" d="M-70 -352l35 264q21 -11 65 -20t85 -9q134 0 180 148l-242 1016h432l84 -543h17l215 543h399l-489 -973q-104 -207 -255.5 -332t-330.5 -125q-142 0 -195 31zM524 1178l230 297h309l2 -7l-299 -290h-242z" />
<glyph unicode="&#xfe;" horiz-adv-x="1226" d="M-35 -371l258 1846h406l-76 -537q99 129 289 129q148 0 238.5 -102.5t90.5 -296.5q0 -55 -10 -133l-2 -23q-18 -130 -63.5 -233.5t-109.5 -167.5t-139.5 -97.5t-158.5 -33.5q-193 0 -252 129l-67 -480h-404zM473 354q0 -51 31 -84.5t78 -33.5q51 0 95.5 42t51.5 101 l43 317q0 54 -30.5 88.5t-77.5 34.5q-54 0 -97.5 -41.5t-50.5 -101.5l-41 -297q-2 -6 -2 -25z" />
<glyph unicode="&#xff;" horiz-adv-x="1130" d="M-70 -352l35 264q21 -11 65 -20t85 -9q134 0 180 148l-242 1016h432l84 -543h17l215 543h399l-489 -973q-104 -207 -255.5 -332t-330.5 -125q-142 0 -195 31zM260 1174l43 301h311l-43 -301h-311zM711 1174l43 301h311l-43 -301h-311z" />
<glyph unicode="&#x152;" horiz-adv-x="2056" d="M57 508q0 22 1.5 40.5t4 37t12 84t19.5 137.5q25 167 117.5 302t245 215.5t338.5 80.5h1319l-86 -324h-592l-31 -204h569l-43 -314h-569l-33 -227h586v-336h-1323q-232 0 -383.5 145t-151.5 363zM512 498q0 -76 50 -126t128 -50h10q100 0 160.5 56.5t73.5 147.5l55 359 q2 6 2 28q0 76 -50.5 126.5t-127.5 50.5h-10q-100 0 -160.5 -57t-73.5 -148l-55 -359q-2 -6 -2 -28z" />
<glyph unicode="&#x153;" horiz-adv-x="1931" d="M33 420q0 94 23 184.5t73.5 175t123 148t178 101.5t231.5 38h34q198 0 332 -88q149 88 354 88h52q214 0 329 -106.5t115 -284.5q0 -15 -2 -21l-2 -34q-1 -15 -19 -152h-681l-9 -51q-8 -36 -8 -70q0 -58 38.5 -89.5t100.5 -31.5q72 0 116.5 44.5t55.5 121.5h375 q-26 -179 -180 -296t-389 -117h-31q-203 0 -334 88q-154 -88 -336 -88h-30q-245 0 -377.5 119.5t-132.5 320.5zM453 350q0 -54 34 -88.5t88 -34.5q65 0 108 40.5t54 103.5l23 149q22 167 22 174q0 50 -34 87.5t-89 37.5q-61 0 -107 -41.5t-54 -101.5q-11 -68 -23 -158 q-22 -126 -22 -168zM1198 647h283q0 9 2 15q0 3 1 13.5t1 18.5q0 54 -33.5 89.5t-87.5 35.5q-60 0 -107.5 -41.5t-54.5 -101.5z" />
<glyph unicode="&#x178;" horiz-adv-x="1318" d="M90 1405h483l146 -461h10l281 461h440l-588 -868l-76 -537h-428l76 537zM408 1536l43 301h311l-43 -301h-311zM858 1536l43 301h311l-43 -301h-311z" />
<glyph unicode="&#x2c6;" horiz-adv-x="1105" d="M111 1178l327 297h262l242 -297h-266l-129 157l-174 -157h-262z" />
<glyph unicode="&#x2dc;" horiz-adv-x="681" d="M-86 1180q18 116 110.5 204.5t217.5 88.5q68 0 178.5 -41t163.5 -41q74 0 114 82h166q-18 -117 -109.5 -205t-219.5 -88q-68 0 -179 41t-163 41q-37 0 -67 -22.5t-48 -59.5h-164z" />
<glyph unicode="&#x2000;" horiz-adv-x="959" />
<glyph unicode="&#x2001;" horiz-adv-x="1919" />
<glyph unicode="&#x2002;" horiz-adv-x="959" />
<glyph unicode="&#x2003;" horiz-adv-x="1919" />
<glyph unicode="&#x2004;" horiz-adv-x="639" />
<glyph unicode="&#x2005;" horiz-adv-x="479" />
<glyph unicode="&#x2006;" horiz-adv-x="319" />
<glyph unicode="&#x2007;" horiz-adv-x="319" />
<glyph unicode="&#x2008;" horiz-adv-x="239" />
<glyph unicode="&#x2009;" horiz-adv-x="383" />
<glyph unicode="&#x200a;" horiz-adv-x="106" />
<glyph unicode="&#x2010;" horiz-adv-x="718" d="M72 401l45 324h520l-47 -324h-518z" />
<glyph unicode="&#x2011;" horiz-adv-x="718" d="M72 401l45 324h520l-47 -324h-518z" />
<glyph unicode="&#x2012;" horiz-adv-x="718" d="M72 401l45 324h520l-47 -324h-518z" />
<glyph unicode="&#x2013;" horiz-adv-x="1222" d="M72 401l45 324h1024l-47 -324h-1022z" />
<glyph unicode="&#x2014;" horiz-adv-x="2078" d="M78 401l45 324h1864l-48 -324h-1861z" />
<glyph unicode="&#x2018;" horiz-adv-x="557" d="M98 692l47 330l156 383h193l-123 -338h172l-54 -375h-391z" />
<glyph unicode="&#x2019;" horiz-adv-x="542" d="M133 1030l53 375h392l-48 -330l-155 -383h-193l123 338h-172z" />
<glyph unicode="&#x201a;" horiz-adv-x="585" d="M14 0l54 375h391l-47 -330l-156 -383h-193l123 338h-172z" />
<glyph unicode="&#x201c;" horiz-adv-x="1052" d="M143 1075l47 330h392l-54 -375h-172l29 -338h-192zM651 1075l47 330h392l-54 -375h-172l29 -338h-193z" />
<glyph unicode="&#x201d;" horiz-adv-x="1050" d="M133 1030l53 375h392l-48 -330l-155 -383h-193l123 338h-172zM641 1030l53 375h391l-47 -330l-155 -383h-193l123 338h-172z" />
<glyph unicode="&#x201e;" horiz-adv-x="1093" d="M14 0l54 375h391l-47 -330l-156 -383h-193l123 338h-172zM522 0l53 375h392l-47 -330l-156 -383h-193l123 338h-172z" />
<glyph unicode="&#x2022;" horiz-adv-x="1228" d="M274 649q0 164 121.5 284t282.5 120q134 0 220.5 -86t86.5 -215q0 -91 -37.5 -168.5t-97 -127.5t-131 -78t-141.5 -28q-132 0 -218 85t-86 214z" />
<glyph unicode="&#x2026;" horiz-adv-x="1951" d="M16 0l52 375h391l-51 -375h-392zM698 0l52 375h391l-51 -375h-392zM1380 0l52 375h391l-51 -375h-392z" />
<glyph unicode="&#x202f;" horiz-adv-x="383" />
<glyph unicode="&#x2039;" horiz-adv-x="534" d="M76 690l295 357h151l-223 -357l123 -356h-152z" />
<glyph unicode="&#x203a;" horiz-adv-x="536" d="M39 334l225 356l-125 357h152l196 -357l-297 -356h-151z" />
<glyph unicode="&#x205f;" horiz-adv-x="479" />
<glyph unicode="&#x20ac;" horiz-adv-x="1222" d="M39 461l27 188h159l15 99h-160l26 188h185q39 107 100.5 191.5t130 137.5t149 88.5t155.5 49.5t151 14q145 0 266 -37l-45 -327q-90 37 -205 37q-177 0 -278 -154h280l-26 -188h-324q-14 -54 -14 -99h323l-26 -188h-273q23 -54 69 -87.5t90.5 -44t94.5 -10.5q97 0 193 54 l-47 -342q-151 -51 -287 -51q-72 0 -140.5 14t-138 48.5t-123.5 87.5t-93 138t-50 193h-184z" />
<glyph unicode="&#x2122;" horiz-adv-x="2062" d="M180 1208l27 197h717l-27 -197h-233l-86 -618h-250l86 618h-234zM883 590l112 815h410l49 -475h8l180 475h410l-113 -815h-249l82 563h-9l-219 -563h-287l-63 563h-8l-74 -563h-229z" />
<glyph unicode="&#x25fc;" horiz-adv-x="1044" d="M0 0v1044h1044v-1044h-1044z" />
<glyph unicode="&#xfb01;" horiz-adv-x="1437" d="M-193 -338l33 229q57 -24 123 -24q63 0 94 36.5t43 104.5l105 748h-131l41 291h131l18 135q45 309 420 309q65 0 144 -11.5t122 -33.5l-30 -225q-70 20 -125 20q-24 0 -43 -5t-32 -11t-23.5 -20.5t-16 -23.5t-11 -30.5t-7.5 -31.5t-6 -36.5t-5 -35.5h246l-41 -291h-246 l-112 -809q-24 -163 -137.5 -246.5t-284.5 -83.5q-67 0 -145.5 11.5t-123.5 33.5zM852 0l145 1047h404l-148 -1047h-401zM1016 1182l41 293h403l-41 -293h-403z" />
<glyph unicode="&#xfb02;" horiz-adv-x="1441" d="M-193 -338l33 229q57 -24 123 -24q63 0 94 36.5t43 104.5l105 748h-131l41 291h131l18 135q45 309 420 309q65 0 144 -11.5t122 -33.5l-30 -225q-70 20 -125 20q-24 0 -43 -5t-32 -11t-23.5 -20.5t-16 -23.5t-11 -30.5t-7.5 -31.5t-6 -36.5t-5 -35.5h246l-41 -291h-246 l-112 -809q-24 -163 -137.5 -246.5t-284.5 -83.5q-67 0 -145.5 11.5t-123.5 33.5zM852 0l205 1475h405l-207 -1475h-403z" />
</font>
</defs>
</svg>
