<?xml version="1.0" encoding="utf-8"?>
<!-- Generator: Adobe Illustrator 17.1.0, SVG Export Plug-In . SVG Version: 6.00 Build 0)  -->
<!DOCTYPE svg PUBLIC "-//W3C//DTD SVG 1.1//EN" "http://www.w3.org/Graphics/SVG/1.1/DTD/svg11.dtd">
<svg version="1.1" id="Layer_1" xmlns="http://www.w3.org/2000/svg" xmlns:xlink="http://www.w3.org/1999/xlink" x="0px" y="0px"
	 viewBox="0 0 300 75" enable-background="new 0 0 300 75" xml:space="preserve">
<g>
	<path fill="#FFFFFF" d="M18.1,33.1c3.5,0,6.6,1.3,6.6,5.5c0,2.8-1.7,4.9-4.5,5.4v0.1c2.8,0.2,4.7,2.3,4.7,5.1
		c0,4.6-3.6,6.3-8.5,6.3H1.1c0.4-3.3,1-13.4,1-22.3H18.1z M10.2,50.1h3.6c1.8,0,2.2-0.9,2.2-1.9c0-1.4-1.4-1.4-2.5-1.4h-3.1
		L10.2,50.1z M10.6,41.5h3.2c1.1,0,2-0.3,2-1.5c0-1.1-0.9-1.4-1.9-1.4h-3.1L10.6,41.5z"/>
	<path fill="#FFFFFF" d="M40.3,53.6c-1.6,1.8-3.7,2.3-6.1,2.3c-4.7,0-6.3-2.2-6.3-5.1c0-0.4,0.8-8.5,0.8-12.1h8.7
		c-0.1,1.7-0.7,6.7-0.7,8.1c0,1.3,0,2.7,1.5,2.7c1,0,1.7-0.7,2-1.6c0.6-1.8,0.8-8,0.8-9.2h8.6c-0.6,5.6-0.9,11.2-1,16.7h-8.2V53.6z"
		/>
	<path fill="#FFFFFF" d="M61.7,40.2c1.3-1.1,2.4-1.9,4.3-1.9c0.5,0,0.9,0.1,1.3,0.1l0.3,6.7c-0.6-0.2-1.2-0.3-1.8-0.3
		c-2,0-3.4,0.9-3.9,2.6c-0.5,1.3-0.5,4.1-0.5,5.5c0,0.8,0,1.6,0.1,2.4h-8.7c0.4-4.4,0.8-8.4,0.8-16.7h8.2
		C61.7,38.7,61.7,40.2,61.7,40.2z"/>
	<path fill="#FFFFFF" d="M79.1,40.5c0.9-0.8,3-2.2,6.5-2.2c4.9,0,6.6,2.2,6.6,4.9c0,1.3-0.5,7.2-0.5,12.3h-8.7
		c0.2-2.5,0.5-5,0.5-7.5c0-1.2,0-3.3-1.7-3.3c-1.8,0-2.4,1.8-2.7,3.1c-0.5,2.5-0.5,5.2-0.7,7.7h-8.8c0.8-5.6,1-11.2,1.2-16.7h8.6
		L79.1,40.5z"/>
	<path fill="#FFFFFF" d="M105.2,38.7c-0.6,5.4-0.6,11.2-0.6,16.7h-9.2c0.7-4.9,0.9-9.5,1-16.7C96.3,38.7,105.2,38.7,105.2,38.7z
		 M105.1,32.7c-0.1,1.1-0.2,2.7-0.3,4.6h-8.3c0.1-1.5,0.1-3,0.1-4.6H105.1z"/>
	<path fill="#FFFFFF" d="M117.7,40.5c0.9-0.8,3-2.2,6.5-2.2c4.9,0,6.6,2.2,6.6,4.9c0,1.3-0.5,7.2-0.5,12.3h-8.7
		c0.2-2.5,0.5-5,0.5-7.5c0-1.2,0-3.3-1.7-3.3c-1.8,0-2.4,1.8-2.7,3.1c-0.5,2.5-0.5,5.2-0.7,7.7h-8.8c0.8-5.6,1-11.2,1.2-16.7h8.6
		L117.7,40.5z"/>
	<path fill="#FFFFFF" d="M135.4,56.4c2.2,0.7,4.7,1.4,7.1,1.4c2.8,0,3.8-1.3,3.8-3.8c-1.6,1-3.5,1.6-5.4,1.6c-4.6,0-7.4-3.4-7.4-7.5
		c0-5.9,4.5-9.8,11.9-9.8c3.9,0,7.1,0.4,10.2,1c-0.4,4-0.7,10.7-0.9,17.4c-0.1,3.9-1.6,6.8-8.8,6.8c-3.4,0-6.8-0.5-10-1.2
		L135.4,56.4z M145.5,44.1c-2.1,0-3.7,1.4-3.7,3.4c0,1.1,0.6,2.3,2,2.3c2.7,0,3-3.7,3-5.6C146.4,44.2,146,44.1,145.5,44.1z"/>
</g>
<g>
	<path fill="#FFFFFF" d="M215.3,60.5h2.5c0.9,0,1.5,0.3,2,0.8c0.4,0.5,0.6,1.1,0.6,1.8c0,0.6-0.1,1.1-0.4,1.6
		c-0.4,0.8-1.2,1.2-2.3,1.2h-2.5L215.3,60.5L215.3,60.5z M217.7,65.2c0.3,0,0.5,0,0.7-0.1c0.3-0.1,0.6-0.3,0.8-0.6
		c0.2-0.2,0.3-0.5,0.4-0.8c0-0.2,0.1-0.4,0.1-0.6c0-0.7-0.2-1.2-0.5-1.6c-0.3-0.4-0.8-0.6-1.5-0.6h-1.5v4.2H217.7z"/>
	<path fill="#FFFFFF" d="M225.3,60.5h4.6v0.7h-3.8v1.6h3.5v0.6h-3.5v1.8h3.8v0.6h-4.7L225.3,60.5L225.3,60.5z"/>
	<path fill="#FFFFFF" d="M235.2,64.1c0,0.3,0.1,0.6,0.2,0.7c0.3,0.4,0.8,0.5,1.5,0.5c0.3,0,0.6,0,0.8-0.1c0.5-0.2,0.7-0.4,0.7-0.8
		c0-0.3-0.1-0.5-0.3-0.6c-0.2-0.1-0.5-0.2-1-0.3l-0.8-0.2c-0.5-0.1-0.9-0.2-1.2-0.4c-0.4-0.2-0.6-0.6-0.6-1c0-0.5,0.2-0.9,0.6-1.2
		c0.4-0.3,0.9-0.5,1.6-0.5c0.6,0,1.2,0.1,1.7,0.4c0.5,0.3,0.7,0.7,0.7,1.3h-0.8c0-0.3-0.1-0.5-0.3-0.7c-0.3-0.3-0.7-0.4-1.3-0.4
		c-0.5,0-0.8,0.1-1,0.3s-0.3,0.4-0.3,0.6c0,0.3,0.1,0.5,0.4,0.6c0.2,0.1,0.5,0.2,1.1,0.3l0.9,0.2c0.4,0.1,0.7,0.2,1,0.3
		c0.4,0.3,0.6,0.6,0.6,1.1c0,0.6-0.2,1-0.7,1.3c-0.5,0.3-1.1,0.4-1.7,0.4c-0.8,0-1.4-0.2-1.8-0.5c-0.4-0.3-0.6-0.8-0.6-1.4
		L235.2,64.1L235.2,64.1z"/>
	<path fill="#FFFFFF" d="M244.3,60.5h0.9v5.4h-0.9V60.5z"/>
	<path fill="#FFFFFF" d="M254.3,60.6c0.6,0.3,1,0.8,1.1,1.5h-0.9c-0.1-0.4-0.3-0.7-0.6-0.9s-0.7-0.3-1.2-0.3c-0.6,0-1.1,0.2-1.5,0.6
		c-0.4,0.4-0.6,0.9-0.6,1.7c0,0.6,0.2,1.2,0.5,1.6c0.3,0.4,0.9,0.6,1.6,0.6c0.6,0,1-0.1,1.4-0.4c0.4-0.3,0.6-0.7,0.6-1.4h-2V63h2.8
		v2.9H255l-0.2-0.7c-0.3,0.3-0.5,0.5-0.8,0.6c-0.4,0.2-0.8,0.3-1.4,0.3c-0.7,0-1.4-0.2-1.9-0.6c-0.6-0.5-0.9-1.2-0.9-2.1
		c0-0.9,0.3-1.6,0.9-2.2c0.5-0.5,1.2-0.8,2.1-0.8C253.4,60.3,253.9,60.4,254.3,60.6z"/>
	<path fill="#FFFFFF" d="M260.5,60.5h1l3.2,4.4v-4.4h0.8v5.4h-1l-3.2-4.4v4.4h-0.8L260.5,60.5L260.5,60.5z"/>
</g>
<g>
	<path fill="#FFFFFF" d="M234.8,35.6c0,0.1,0.1,0.4,0.1,0.7c0,0.2-0.8,3.5-0.8,3.9c-0.2,1.7-0.8,2.2-0.8,2.6c0,1.8-0.9,3.8-1,4.1
		c-0.1,1-0.1,1.3-0.6,1.8c-0.3,3.4-1.1,3.7-1.1,4.4c0,1.4-0.7,1.7-0.7,2.8c-0.9,1.9-0.3,1.9-1,3c-0.3,0.1-0.6,0.4-0.9,0.6
		c-0.4,0-0.8-0.1-1.1-0.3c-0.3-0.6-0.1-1-0.3-1.6c0-0.1,0.3-1,0.4-1.1c0-0.7,0-2.5,0.5-3.3c0-1.1,0.6-3.8,0.9-4.4
		c0-1.1,0.7-2.1,0.7-4.1c-0.8,0-1.3,0.2-1.7,0.2c-0.5,0-1,0.3-1.7,0.3c-2.6,0-4.5,1.1-5.8,1.1c-0.5,0-0.6,0.7-1.5,1.1
		c-0.3,0.1-0.3,2.2-0.3,2.5c0,0.2-0.1,0.4-0.1,1c0,1.6,0.3,2.1,0.8,2.1c0.3,0,0.7-0.8,1.2-0.8c0.2,0,0.4,0.1,0.5,0.2
		c-0.8,1.5-1.4,1.8-1.9,2.9c-1,0.8-1.7,1.2-2.3,1.2c-0.9,0-1.1-0.2-1.1-0.7c-0.1-1.4-0.4-1.8-0.4-4c-0.1-0.6-0.2-1-0.2-1.5
		c0-0.4,0-0.8,0.1-1.3c-0.3-0.7-1.3-2.2-1.3-2.7c0-1.1,1.8-1.7,1.8-4.1c0-2.1,0.7-3.7,0.7-4.9c0-0.3,0.1-2,0.3-2.2
		c0-1.1,0.2-2.4,0.4-3.5c0.7-0.2,0.6-1.3,2.9-1.3c1,0.3,1.6,0.8,1.6,1.5c-0.5,1.3-0.6,3.1-0.9,3.4c0,1.2-0.6,1.9-0.6,3.1
		c-0.3,0.7-0.5,2.1-0.5,2.6c0,0.5-0.3,1.2-0.3,1.8c0,0.2,0.3,0.3,0.5,0.3c1.2,0,0.8-0.4,2.9-0.4c0.3,0,0.5,0,0.6,0
		c0.2,0,0.3,0,0.4,0c1,0,1.6-0.3,1.9-0.3c0.2,0,0.4,0,0.6,0c0.2,0,0.5,0.1,0.6,0.1c1.5-0.2,3.4,0,3.4-0.6c0-0.6,0.5-0.9,0.5-2.5
		c0-1.2,0.4-1.7,0.4-2.2c0-0.6,0.2-1.1,0.2-2.6c0-0.7-0.2-0.8-0.2-1c0-0.3,0.7-0.6,1.7-2.2c1.1-0.8,1.8-1.5,2.4-1.5
		c0.4,0,0.7,0.4,0.7,1.4C235.3,34.7,234.8,35.5,234.8,35.6z"/>
	<path fill="#FFFFFF" d="M244.9,44.9c-0.2,0.7-0.7,1.3-1.5,1.9c-0.7,0.9-2.6,2.2-2.9,2.2c-0.4,0.6-1.1,0.7-1.6,1.2
		c0.1,1,0.2,1.5,0.4,1.5c0.6,0.2,0.7,0.7,2.1,0.7c1.7,0,3-0.8,3.6-1c0.1-0.2,1-0.5,1.2-0.7l0.3-0.1c0.8-0.3,0.8-1,1.3-1
		c0.3,0,0.3,0.1,0.3,0.3c0,0.2-0.1,0.3-0.1,0.5c0,1.4-0.3,1.8-0.5,1.8c-2.5,1.1-4.5,2.9-6.7,2.9c-0.4,0.1-0.7,0.1-1,0.1
		c-1.5,0-2.2-0.4-3.4-1.1c-0.3-0.8-1.4-1.4-1.4-4.2c0-1.7,0.8-2,1.5-3.7c0.5-0.3,0.5-1,1.3-1.8c1-0.7,1-1.3,3.2-2.3
		c0.3-0.5,1.2-0.7,2.1-0.7c0.6,0,1.6,0.4,1.6,0.7c0.5,0.1,0.6,0.7,0.6,1.4C245.3,44,245.3,44.7,244.9,44.9z M241.5,45
		c-0.5,0-0.9,0.5-1.4,0.8c0,0.2-1.2,1-1.2,1.5c0,0.2,0.1,0.2,0.4,0.2c0.3-0.1,1-0.5,1-0.7c0.6-0.2,1.3-1,1.3-1.5
		C241.7,45.2,241.6,45,241.5,45z"/>
	<path fill="#FFFFFF" d="M265.4,49.8c0,0.5,0.1,0.9,0.1,1.1c0,0.1-0.1,0.3-0.1,0.5c0,0.1,0.1,0.3,0.1,0.5c0,0.4-0.6,0.5-1.1,1
		c-1.3,0.7-1.9,1-2.5,1c-0.2,0-0.4-0.1-0.6-0.1c-0.1,0-0.4,0.1-0.6,0.1c-0.6,0-1.7-0.6-1.9-1.2c-0.7-0.5-0.3-2.4-0.9-2.4
		c-0.3,0-1.4,0.9-1.7,1.3c-0.7,0-1.2,1.3-2.6,1.8c-0.9,1-2.1,1.2-2.8,1.8c-0.6,0-0.9,0.3-1.3,0.3c-0.4,0-1.3-0.4-1.6-0.6
		c-0.3-0.7-0.3-1-0.3-1.2c0-0.7,0.4-1.3,0.4-1.4c0-0.1-0.4-0.2-0.5-0.2c0-2,0-2.4,0.9-2.9c0.8-0.4,1.6-1.5,2.1-1.6
		c0.7-0.9,1-1.1,1.8-1.6c0.5-0.8,2.2-1.4,3.2-2.4c0.5-0.1,1-0.5,1.4-1c1.5-0.8,2.6-1.8,4.1-1.8c0.9,0,1,0.5,1.4,0.8
		c-0.1,0.8-0.9,1.6-1.8,1.8c-0.6,1-1.5,1.2-2.3,2c-0.3,0.4-0.8,0.8-1.5,1.2c-0.4,0.6-1,1.1-1.6,1.3c-0.4,0.8-1.8,1.5-2.5,2.5
		c-0.1,0.4-0.5,0.5-0.5,0.9c0.9,0,1.3-0.8,2.4-1.2c0.2-0.3,1.3-1.4,2.5-1.8c0.6-0.9,1.9-1.4,2.5-1.9c0.6-0.1,1.1-0.1,1.4-0.1
		c0.8,0,0.4,1.2,0.8,1.6c0,0.4-0.2,0.6-0.2,1.3c0,0.8,0.6,1.6,1.6,1.6c0.8,0,1-0.4,1.3-0.4c0.6-0.3,0.7-0.7,0.9-0.7L265.4,49.8z"/>
	<path fill="#FFFFFF" d="M274.8,52.8c0,0.1,0.1,0.1,0.3,0.1c0.6,0,4.2-2.5,4.2-2.8c0-0.1,0.2-0.3,0.3-0.3c0.2,0,0.3,0.1,0.3,0.7
		c0.2,0.3,0.2,0.6,0.2,1c0,0.5-0.7,0.7-0.8,1.3c-1,0.5-3.1,2.2-3.8,2.4c-0.9,0.3-2.2,1.3-3.2,1.3c-1.5,0-1.7-0.4-1.7-1
		c0-0.4,0.3-1.4,0.8-2.1c0-0.6,1-2.8,1-4c0-0.8-0.3-2.4-1.4-2.4c-1,0-3.5,3.2-4.2,3.6c-0.3,0.1-1.3,1.7-1.6,1.7
		c-0.1,0-0.1,0-0.1-0.1c0-0.1,0.1-0.2,0.1-0.3c0-0.2-0.2-0.5-0.2-1.6c0-0.5,1.2-1.1,1.4-1.9c1.6-1.5,1.8-2.4,2.2-2.5
		c0-0.4-0.2-0.6-0.2-1c0-0.4,0.8-0.4,1.5-1.1c0.3-0.1,0.8-0.7,1.6-0.7c2.3,0,2.5,1.3,3.2,1.6c0.4,0.4,0.4,0.8,0.9,1.2
		c0.4,1,0.5,1.8,0.5,2.4C276.1,50.1,274.8,51.3,274.8,52.8z"/>
	<path fill="#FFFFFF" d="M292.1,37.6c0,0.3,0.6,0.3,0.6,0.6c0,0.4-0.2,1.1-0.2,2.4c0,0.9-1.9,0.3-2,0.9c-0.1,0.3-0.3,1.4-1.3,3.8
		c-0.1,0.8-0.9,2.1-0.9,3.1c-0.4,1-0.7,2.9-0.7,4c0,0.3,0.1,0.4,0.3,0.4c0.5,0,2.9-1.8,3.1-2.1c1.2-0.6,1.4-1.2,1.8-1.2
		c0.2,0,0.3,0,0.3,0.6c0,0.2-0.1,0.4-0.1,0.6c0,0.2,0.1,0.4,0.1,0.6c0,0.6-0.5,1-1.3,1.5c-0.3,0.1-1.5,1.5-2.3,1.7
		c-0.9,1-3.3,2.6-3.6,2.6c-0.4,0-0.5-0.4-1.5-0.7c-0.4-0.1-0.7-0.6-0.6-1.7c0.1-2.2,0.2-2.7,0.4-2.9c0.3-3.4,1-3.9,1-4.1
		c0-0.1-0.1-0.1-0.1-0.1c-0.3,0-0.6,0.6-1.6,1.6c-2.7,2.5-3.1,2.5-3.9,3.3c-0.1-0.6-0.1-1.1-0.1-2c0-0.9,1-1,2.3-2.5
		c0.9-0.8,1.6-2,2.5-2.8c0.5-0.9,2.6-3.7,2.6-4c0-0.1-0.1-0.2-0.3-0.2c-0.5,0-2.3,0.1-3,0.1c-0.7,0-0.9-0.2-1.1-0.2
		c-0.3,0-0.4,0.1-0.6,0.1c-1.6-0.3-1.7-0.6-1.7-0.8c0-1.6,0.1-2.5,1-2.5c1.8,0,2,0.1,2.2,0.1c0.4,0,0.7-0.1,1-0.1
		c0.4,0,1.1,0,1.6,0.1c0.5,0,0.9,0,1.3-0.1c0.2,0,0.5,0.1,0.8,0.1c1.5,0,1.1-2.4,3.3-3.6c1,0.1,1.3,0.5,1.3,1.4
		C292.8,36.2,292.1,37.1,292.1,37.6z"/>
</g>
<path fill="#C33A32" d="M208.1,31.7c-0.8,8.7-6.4,23.7-23.1,32.5c-9.5-9.2,11.1-25.1-1.3-36.9c0,0-9.8-9.7-8-19.2
	c7.8,7.8,12.3,4.2,15.5,10.7c0,0,5.5-3.7,1.7-12.5c0,0,8.4,10.9,7.6,18.2c0,0,4.4-6.3,3.4-9.9C203.9,14.6,208.8,20.5,208.1,31.7z"/>
<path fill="#FFFFFF" d="M182.9,64.3c0,0-25.8-15.1-19.8-32.4c3.5-10.1,16.1-7.9,20.1-2.3C191.1,40.5,174.6,55.3,182.9,64.3z"/>
<path fill="#FFFFFF" d="M177.1,41.2"/>
</svg>
